<svg width="176" height="42" viewBox="0 0 176 42" fill="none" xmlns="http://www.w3.org/2000/svg">
<g clip-path="url(#clip0_39_31228)">
<mask id="mask0_39_31228" style="mask-type:luminance" maskUnits="userSpaceOnUse" x="0" y="0" width="43" height="42">
<path d="M42.6231 0.718872H0.981934V41.5514H42.6231V0.718872Z" fill="white"/>
</mask>
<g mask="url(#mask0_39_31228)">
<path d="M21.8025 41.5514C33.3128 41.5514 42.6231 32.4219 42.6231 21.1352C42.6231 9.84842 33.3128 0.718872 21.8025 0.718872C10.2923 0.718872 0.981934 9.84842 0.981934 21.1352C0.981934 32.4219 10.2923 41.5514 21.8025 41.5514Z" fill="white"/>
<path fill-rule="evenodd" clip-rule="evenodd" d="M21.8419 7.76831C20.3491 7.76831 19.1706 8.34613 18.3849 9.27064C17.6385 10.1952 17.3242 11.3508 17.3242 12.4679C17.3242 13.6621 17.7956 14.9718 18.542 16.0119C19.2491 17.0134 20.3884 17.9765 21.8419 17.9765C23.2954 17.9765 24.4347 17.0134 25.1418 16.0119C25.8882 14.9718 26.3596 13.6621 26.3596 12.4679C26.3596 11.3508 26.0453 10.1952 25.2989 9.27064C24.5132 8.34613 23.3347 7.76831 21.8419 7.76831ZM19.367 12.4679C19.367 11.6975 19.6027 11.0041 19.9563 10.5418C20.3098 10.1181 20.8991 9.77142 21.8026 9.77142C22.7454 9.77142 23.2954 10.1181 23.649 10.5418C24.0418 11.0041 24.2382 11.6975 24.2382 12.4679C24.2382 13.1613 23.924 14.0858 23.4133 14.8562C22.8633 15.6267 22.274 15.9733 21.8026 15.9733C21.3312 15.9733 20.7419 15.6267 20.192 14.8562C19.6813 14.0858 19.367 13.1613 19.367 12.4679Z" fill="black"/>
<path d="M14.9671 22.5219C12.885 22.2908 11.1565 23.9472 11.1565 25.6036C11.1565 27.26 12.4922 28.7624 15.0064 28.7624C15.9099 28.7624 16.8527 28.3772 17.8348 27.6453C19.0134 26.7978 19.9955 25.7962 20.9776 24.7947C21.9597 23.7931 22.9418 22.7916 24.1596 21.9441C25.3381 21.0966 26.6738 20.4418 28.2059 20.4418C31.6629 20.4418 34.1378 22.676 34.1378 25.6421C34.1378 28.5698 31.27 31.0736 28.0487 30.727C26.7523 30.5729 25.2203 30.1491 24.0025 28.9935L25.456 27.5682C26.2417 28.3001 27.263 28.6468 28.2844 28.7624C30.3665 28.9935 32.095 27.3371 32.095 25.6807C32.095 24.0243 30.7593 22.5219 28.2451 22.5219C27.3416 22.5219 26.3988 22.9071 25.4167 23.639C24.2382 24.4865 23.2561 25.4881 22.274 26.4896C21.2919 27.4912 20.3097 28.4927 19.0919 29.3402C17.9134 30.1877 16.5778 30.8425 15.0457 30.8425C11.5887 30.8425 9.11377 28.6083 9.11377 25.6421C9.11377 22.7145 11.9815 20.2106 15.2028 20.5573C16.4992 20.7114 18.0313 21.1352 19.2491 22.2908L17.7956 23.7161C17.0099 22.9842 15.9885 22.6375 14.9671 22.5219Z" fill="black"/>
</g>
<path d="M124.491 26.4126H124.02C123.863 26.7208 123.706 26.9904 123.47 27.2601C123.273 27.5297 122.998 27.7608 122.645 27.9534C122.331 28.146 121.938 28.3387 121.466 28.4542C120.995 28.5698 120.445 28.6468 119.816 28.6468C118.991 28.6468 118.206 28.4927 117.499 28.2231C116.792 27.9149 116.163 27.4912 115.613 26.9519C115.102 26.3741 114.67 25.6807 114.356 24.8332C114.081 24.0243 113.924 23.0612 113.924 21.9826V21.5204C113.924 20.4803 114.081 19.5173 114.395 18.7083C114.71 17.8994 115.142 17.206 115.692 16.6282C116.242 16.0504 116.909 15.6266 117.617 15.3185C118.363 15.0103 119.149 14.8562 119.934 14.8562C121.034 14.8562 121.899 15.0488 122.527 15.4725C123.156 15.8578 123.666 16.3971 124.02 17.129H124.491V15.2414H127.909V34.3865H120.524V31.5359H124.491V26.4126ZM120.916 25.4881C121.977 25.4881 122.841 25.1799 123.509 24.525C124.177 23.8702 124.531 22.9842 124.531 21.9441V21.6359C124.531 20.5574 124.177 19.7099 123.509 19.055C122.841 18.4002 122.016 18.0535 120.916 18.0535C119.856 18.0535 118.991 18.3616 118.324 19.0165C117.656 19.6328 117.342 20.5188 117.342 21.5974V21.9056C117.342 23.0227 117.656 23.8702 118.324 24.525C118.991 25.1799 119.856 25.4881 120.916 25.4881Z" fill="white"/>
<path d="M140.087 15.2799H143.505V28.3001H140.087V26.4126H139.616C139.026 27.9149 137.73 28.6853 135.766 28.6853C135.098 28.6853 134.469 28.5698 133.88 28.3771C133.291 28.1845 132.78 27.8379 132.348 27.4141C131.916 26.9904 131.562 26.4511 131.327 25.7962C131.091 25.1414 130.973 24.3709 130.973 23.4464V15.2799H134.391V22.753C134.391 23.6775 134.627 24.4095 135.059 24.9488C135.53 25.4495 136.198 25.7192 137.101 25.7192C138.123 25.7192 138.869 25.411 139.341 24.7561C139.812 24.1013 140.087 23.2153 140.087 22.1367V15.2799Z" fill="white"/>
<path d="M146.058 15.2799H152.069V17.1674H152.54C152.776 16.4355 153.208 15.8962 153.797 15.511C154.426 15.1258 155.133 14.8947 155.997 14.8947C157.333 14.8947 158.393 15.3184 159.218 16.1273C160.043 16.9363 160.436 18.169 160.436 19.8254V20.4032L156.901 21.1736V20.3647C156.901 19.6328 156.704 19.0935 156.311 18.6697C155.919 18.246 155.369 18.0149 154.583 18.0149C153.837 18.0149 153.208 18.2845 152.776 18.7853C152.344 19.2861 152.108 20.018 152.108 20.981V25.1798H155.211V28.3386H145.94V25.1798H148.69V18.4001H145.94V15.2799H146.058Z" fill="white"/>
<path d="M172.221 15.2799H175.639V28.3001H172.221V26.4126H171.75C171.161 27.9149 169.864 28.6853 167.9 28.6853C167.232 28.6853 166.604 28.5698 166.014 28.3771C165.425 28.1845 164.914 27.8379 164.482 27.4141C164.05 26.9904 163.697 26.4511 163.461 25.7962C163.225 25.1414 163.107 24.3709 163.107 23.4464V15.2799H166.525V22.753C166.525 23.6775 166.761 24.4095 167.193 24.9488C167.664 25.4495 168.332 25.7192 169.236 25.7192C170.257 25.7192 171.004 25.411 171.475 24.7561C171.946 24.1013 172.221 23.2153 172.221 22.1367V15.2799Z" fill="white"/>
<path d="M74.8359 22.9071C74.8359 23.2923 74.9538 23.639 75.1109 23.9857C75.3073 24.2939 75.543 24.5635 75.818 24.8331C76.1323 25.0643 76.4858 25.2569 76.8394 25.3724C77.2322 25.488 77.6644 25.5651 78.0965 25.5651C78.9607 25.5651 79.5893 25.411 80.0607 25.1413C80.5321 24.8331 80.8464 24.4865 81.0428 24.1012L83.9891 25.6806C83.832 26.0273 83.5963 26.374 83.3213 26.7207C83.0463 27.0674 82.6535 27.3756 82.182 27.6837C81.7106 27.9919 81.1607 28.223 80.4928 28.4156C79.825 28.6082 79.0786 28.6853 78.1751 28.6853C77.1537 28.6853 76.2501 28.5312 75.4252 28.223C74.6002 27.9149 73.8538 27.4526 73.2645 26.8748C72.6753 26.297 72.2039 25.5651 71.8503 24.6791C71.536 23.8316 71.3789 22.8686 71.3789 21.7514V21.5974C71.3789 20.5958 71.536 19.6713 71.8896 18.8623C72.2432 18.0534 72.7539 17.3215 73.3431 16.7437C73.9717 16.1659 74.6788 15.7036 75.5037 15.3954C76.3287 15.0487 77.2322 14.8947 78.1751 14.8947C79.3143 14.8947 80.3357 15.0873 81.1607 15.511C81.9856 15.8962 82.6927 16.397 83.2034 17.0133C83.7534 17.5911 84.1463 18.2845 84.382 19.0164C84.6177 19.7483 84.7748 20.4417 84.7748 21.1351V22.9071H74.8359ZM78.0572 17.9378C77.193 17.9378 76.4858 18.169 75.9359 18.5927C75.3859 19.0164 75.0323 19.5172 74.8752 20.0565H81.2392C81.1214 19.4402 80.7678 18.9394 80.2178 18.5157C79.6286 18.169 78.9215 17.9378 78.0572 17.9378Z" fill="white"/>
<path d="M96.8352 15.3185H100.606L97.3459 21.4434V21.9056L100.803 28.3387H96.8745L94.3603 23.2539H93.8889L91.3747 28.3387H87.4463L90.9033 21.9056V21.4434L87.6034 15.3185H91.414L93.9282 20.0951H94.3996L96.8352 15.3185Z" fill="white"/>
<path d="M65.4078 17.206H64.9364C64.7792 16.8979 64.6221 16.6282 64.3864 16.3586C64.19 16.0889 63.915 15.8578 63.5614 15.6652C63.2471 15.4726 62.8543 15.28 62.3829 15.1644C61.9115 15.0488 61.3615 14.9718 60.733 14.9718C59.908 14.9718 59.1223 15.1259 58.4152 15.3955C57.7081 15.7037 57.0795 16.1274 56.5295 16.6667C56.0189 17.2446 55.5867 17.9379 55.2725 18.7854C54.9975 19.5944 54.8403 20.5574 54.8403 21.636V22.0982C54.8403 23.1383 54.9975 24.1013 55.3117 24.9103C55.626 25.7192 56.0581 26.4126 56.6081 26.9904C57.1581 27.5683 57.8259 27.992 58.533 28.3002C59.2794 28.6083 60.0651 28.7624 60.8508 28.7624C61.9508 28.7624 62.7757 28.5698 63.4436 28.1461C64.0721 27.7609 64.5828 27.2216 64.9364 26.4897H65.4078V28.3772H68.8255V9.1936H62.6579V12.0442H65.4078V17.206ZM61.8329 18.1305C62.8936 18.1305 63.7578 18.4387 64.4257 19.0936C65.0935 19.7484 65.447 20.6344 65.447 21.6745V21.9827C65.447 23.0613 65.0935 23.9087 64.4257 24.5636C63.7578 25.2185 62.9329 25.5652 61.8329 25.5652C60.7722 25.5652 59.908 25.257 59.2402 24.6021C58.5723 23.9858 58.2581 23.0998 58.2581 22.0212V21.713C58.2581 20.5959 58.5723 19.7484 59.2402 19.0936C59.908 18.4387 60.7722 18.1305 61.8329 18.1305Z" fill="white"/>
<path d="M109.995 23.485H105.006V28.3001H109.995V23.485Z" fill="white"/>
</g>
<defs>
<clipPath id="clip0_39_31228">
<rect width="174.814" height="40.8326" fill="white" transform="translate(0.981934 0.718872)"/>
</clipPath>
</defs>
</svg>
