<svg width="17" height="13" viewBox="0 0 17 13" fill="none" xmlns="http://www.w3.org/2000/svg">
<path d="M14.3841 1.04652C13.3074 0.558686 12.1417 0.204612 10.9274 3.61928e-05C10.9167 -0.000294751 10.9061 0.00164721 10.8964 0.00572558C10.8866 0.00980394 10.8778 0.0159197 10.8707 0.0236413C10.725 0.283296 10.555 0.621633 10.4417 0.881287C9.15367 0.692447 7.84382 0.692447 6.55584 0.881287C6.4425 0.613764 6.2725 0.283296 6.11868 0.0236413C6.11059 0.00790467 6.0863 3.61928e-05 6.06201 3.61928e-05C4.84769 0.204612 3.69004 0.558686 2.60525 1.04652C2.59716 1.04652 2.58906 1.05439 2.58097 1.06226C0.379 4.26466 -0.228159 7.38051 0.0713729 10.4649C0.0713729 10.4806 0.0794683 10.4964 0.0956592 10.5042C1.55284 11.5428 2.95336 12.1723 4.33768 12.5893C4.36197 12.5972 4.38625 12.5893 4.39435 12.5736C4.71817 12.1408 5.0096 11.6845 5.26056 11.2045C5.27675 11.173 5.26056 11.1416 5.22818 11.1337C4.76674 10.9606 4.32959 10.756 3.90053 10.52C3.86814 10.5042 3.86814 10.457 3.89243 10.4334C3.98148 10.3705 4.07053 10.2997 4.15958 10.2367C4.17577 10.221 4.20006 10.221 4.21625 10.2288C7.00109 11.4642 10.0045 11.4642 12.757 10.2288C12.7731 10.221 12.7974 10.221 12.8136 10.2367C12.9027 10.3075 12.9917 10.3705 13.0808 10.4413C13.1132 10.4649 13.1132 10.5121 13.0727 10.5278C12.6517 10.7718 12.2065 10.9685 11.745 11.1416C11.7126 11.1494 11.7045 11.1888 11.7126 11.2124C11.9717 11.6923 12.2631 12.1487 12.5789 12.5815C12.6031 12.5893 12.6274 12.5972 12.6517 12.5893C14.0441 12.1723 15.4446 11.5428 16.9018 10.5042C16.918 10.4964 16.9261 10.4806 16.9261 10.4649C17.2823 6.90054 16.3351 3.8083 14.4165 1.06226C14.4084 1.05439 14.4003 1.04652 14.3841 1.04652ZM5.68153 8.58436C4.84769 8.58436 4.15148 7.83687 4.15148 6.91628C4.15148 5.99569 4.8315 5.2482 5.68153 5.2482C6.53965 5.2482 7.21966 6.00356 7.21157 6.91628C7.21157 7.83687 6.53155 8.58436 5.68153 8.58436ZM11.3241 8.58436C10.4902 8.58436 9.79402 7.83687 9.79402 6.91628C9.79402 5.99569 10.474 5.2482 11.3241 5.2482C12.1822 5.2482 12.8622 6.00356 12.8541 6.91628C12.8541 7.83687 12.1822 8.58436 11.3241 8.58436Z" fill="#09021A"/>
</svg>
