<svg width="244" height="39" viewBox="0 0 244 39" fill="none" xmlns="http://www.w3.org/2000/svg">
<g clip-path="url(#clip0_39_31223)">
<mask id="mask0_39_31223" style="mask-type:luminance" maskUnits="userSpaceOnUse" x="0" y="0" width="39" height="39">
<path d="M38.9683 0.530029H0.968262V38.53H38.9683V0.530029Z" fill="white"/>
</mask>
<g mask="url(#mask0_39_31223)">
<path fill-rule="evenodd" clip-rule="evenodd" d="M35.1089 8.07065C32.2292 4.3894 28.0136 2.04409 23.3526 2.04409C14.3276 2.04409 7.70732 10.4457 7.70732 19.53C7.70732 25.8535 11.9229 30.6035 16.5839 30.6035C17.0292 30.6035 17.4448 30.5738 17.8901 30.4847C14.7433 28.1988 12.7542 24.0425 12.7542 19.53C12.7542 12.3457 17.6229 6.73472 23.3526 6.73472C29.6167 6.73472 33.9511 12.9394 33.9511 19.53C33.9214 24.3988 32.1995 29.2378 29.1417 32.8003C26.4698 35.9175 23.0261 37.8769 19.2261 38.5003C19.2261 38.5003 19.5526 38.53 19.9683 38.53C30.4479 38.53 38.9683 30.0097 38.9683 19.53C38.9683 15.2253 37.5433 11.2472 35.1089 8.07065ZM32.2292 19.53C32.2292 13.2066 28.0136 8.45659 23.3526 8.45659C22.9073 8.45659 22.4917 8.48628 22.0464 8.57534C25.1933 10.8613 27.1823 15.0175 27.1823 19.53C27.1823 26.7144 22.3136 32.3253 16.5839 32.3253C10.3198 32.3253 5.98545 26.1207 5.98545 19.53C6.01514 14.6613 7.73701 9.82222 10.7948 6.25972C13.4667 3.14253 16.9104 1.18315 20.7104 0.559717C20.7104 0.559717 20.3839 0.530029 19.9683 0.530029C9.48857 0.530029 0.968262 9.05034 0.968262 19.53C0.968262 23.8347 2.39326 27.8128 4.82764 30.9894C7.70732 34.6707 11.9229 36.9863 16.5839 36.9863C25.6089 37.016 32.2292 28.6144 32.2292 19.53Z" fill="white"/>
</g>
</g>
<path d="M58.1743 10.5833C61.0868 10.5833 63.243 11.5191 64.6431 13.3909C65.7362 14.8508 66.2827 16.7188 66.2827 18.9949C66.2827 21.4581 65.6576 23.5058 64.4072 25.1379C62.9398 27.0546 60.8472 28.0129 58.1294 28.0129C55.5913 28.0129 53.596 27.1744 52.1436 25.4973C50.8483 23.8801 50.2007 21.8362 50.2007 19.3655C50.2007 17.1344 50.7547 15.2252 51.8628 13.6379C53.2853 11.6015 55.3892 10.5833 58.1743 10.5833ZM58.3989 26.0139C60.368 26.0139 61.7905 25.3101 62.6665 23.9026C63.55 22.4875 63.9917 20.8629 63.9917 19.0286C63.9917 17.0894 63.4826 15.5284 62.4644 14.3455C61.4536 13.1625 60.0685 12.571 58.3091 12.571C56.6021 12.571 55.2095 13.1588 54.1313 14.3342C53.0532 15.5022 52.5142 17.2279 52.5142 19.5115C52.5142 21.3383 52.9746 22.8806 53.8955 24.1384C54.8239 25.3888 56.325 26.0139 58.3989 26.0139ZM77.4233 20.7693L74.9189 13.4807L72.2573 20.7693H77.4233ZM73.751 11.0325H76.2778L82.2637 27.53H79.8154L78.1421 22.5886H71.6172L69.8315 27.53H67.5405L73.751 11.0325ZM85.7563 22.2068C85.8088 23.1427 86.0296 23.9026 86.4189 24.4866C87.1602 25.5797 88.4666 26.1262 90.3384 26.1262C91.1769 26.1262 91.9406 26.0064 92.6294 25.7668C93.9621 25.3027 94.6284 24.4716 94.6284 23.2737C94.6284 22.3752 94.3477 21.7351 93.7861 21.3533C93.2171 20.9789 92.3262 20.6532 91.1133 20.3762L88.8784 19.8708C87.4185 19.5414 86.3853 19.1783 85.7788 18.7815C84.7306 18.0927 84.2065 17.0632 84.2065 15.6931C84.2065 14.2107 84.7194 12.9941 85.7451 12.0432C86.7708 11.0924 88.2233 10.6169 90.1025 10.6169C91.832 10.6169 93.2995 11.0362 94.5049 11.8748C95.7178 12.7058 96.3242 14.0385 96.3242 15.8728H94.2241C94.1118 14.9893 93.8722 14.3118 93.5054 13.8401C92.8241 12.9791 91.6673 12.5486 90.0352 12.5486C88.7174 12.5486 87.7703 12.8256 87.1938 13.3796C86.6174 13.9337 86.3291 14.5776 86.3291 15.3113C86.3291 16.1199 86.666 16.7113 87.3398 17.0857C87.7816 17.3253 88.7811 17.6248 90.3384 17.9841L92.6519 18.512C93.7674 18.7665 94.6284 19.1147 95.2349 19.5564C96.283 20.3276 96.8071 21.4469 96.8071 22.9143C96.8071 24.7411 96.1408 26.0476 94.8081 26.8337C93.4829 27.6199 91.9406 28.0129 90.1812 28.0129C88.1297 28.0129 86.5238 27.4889 85.3633 26.4407C84.2028 25.4 83.6338 23.9887 83.6562 22.2068H85.7563ZM100.143 11.0325H102.4V27.53H100.143V11.0325ZM107.499 22.2068C107.551 23.1427 107.772 23.9026 108.161 24.4866C108.902 25.5797 110.209 26.1262 112.081 26.1262C112.919 26.1262 113.683 26.0064 114.372 25.7668C115.704 25.3027 116.371 24.4716 116.371 23.2737C116.371 22.3752 116.09 21.7351 115.528 21.3533C114.959 20.9789 114.068 20.6532 112.855 20.3762L110.621 19.8708C109.161 19.5414 108.127 19.1783 107.521 18.7815C106.473 18.0927 105.949 17.0632 105.949 15.6931C105.949 14.2107 106.462 12.9941 107.487 12.0432C108.513 11.0924 109.965 10.6169 111.845 10.6169C113.574 10.6169 115.042 11.0362 116.247 11.8748C117.46 12.7058 118.066 14.0385 118.066 15.8728H115.966C115.854 14.9893 115.614 14.3118 115.248 13.8401C114.566 12.9791 113.41 12.5486 111.777 12.5486C110.46 12.5486 109.513 12.8256 108.936 13.3796C108.36 13.9337 108.071 14.5776 108.071 15.3113C108.071 16.1199 108.408 16.7113 109.082 17.0857C109.524 17.3253 110.523 17.6248 112.081 17.9841L114.394 18.512C115.51 18.7665 116.371 19.1147 116.977 19.5564C118.025 20.3276 118.549 21.4469 118.549 22.9143C118.549 24.7411 117.883 26.0476 116.55 26.8337C115.225 27.6199 113.683 28.0129 111.923 28.0129C109.872 28.0129 108.266 27.4889 107.105 26.4407C105.945 25.4 105.376 23.9887 105.398 22.2068H107.499ZM127.781 11.0325H130.42L138.753 24.3967V11.0325H140.875V27.53H138.371L129.915 14.177V27.53H127.781V11.0325ZM144.615 11.0325H156.643V13.054H146.794V18.0627H155.902V19.9719H146.794V25.5647H156.812V27.53H144.615V11.0325ZM171.748 11.0325V12.9978H166.189V27.53H163.92V12.9978H158.361V11.0325H171.748ZM174.893 11.0325L178.003 24.4529L181.732 11.0325H184.158L187.886 24.4529L190.997 11.0325H193.445L189.11 27.53H186.763L182.956 13.8513L179.126 27.53H176.779L172.467 11.0325H174.893ZM202.643 10.5833C205.556 10.5833 207.712 11.5191 209.112 13.3909C210.205 14.8508 210.751 16.7188 210.751 18.9949C210.751 21.4581 210.126 23.5058 208.876 25.1379C207.409 27.0546 205.316 28.0129 202.598 28.0129C200.06 28.0129 198.065 27.1744 196.612 25.4973C195.317 23.8801 194.669 21.8362 194.669 19.3655C194.669 17.1344 195.223 15.2252 196.332 13.6379C197.754 11.6015 199.858 10.5833 202.643 10.5833ZM202.868 26.0139C204.837 26.0139 206.259 25.3101 207.135 23.9026C208.019 22.4875 208.46 20.8629 208.46 19.0286C208.46 17.0894 207.951 15.5284 206.933 14.3455C205.922 13.1625 204.537 12.571 202.778 12.571C201.071 12.571 199.678 13.1588 198.6 14.3342C197.522 15.5022 196.983 17.2279 196.983 19.5115C196.983 21.3383 197.443 22.8806 198.364 24.1384C199.293 25.3888 200.794 26.0139 202.868 26.0139ZM221.095 18.5906C222.143 18.5906 222.97 18.3809 223.577 17.9617C224.191 17.5424 224.498 16.7862 224.498 15.6931C224.498 14.5177 224.071 13.7166 223.217 13.2898C222.761 13.0652 222.15 12.9529 221.387 12.9529H215.929V18.5906H221.095ZM213.694 11.0325H221.331C222.588 11.0325 223.625 11.2159 224.441 11.5828C225.991 12.2865 226.766 13.5855 226.766 15.4797C226.766 16.468 226.56 17.2766 226.148 17.9055C225.744 18.5344 225.175 19.0398 224.441 19.4216C225.085 19.6837 225.568 20.0281 225.89 20.4548C226.22 20.8816 226.403 21.5741 226.44 22.5325L226.519 24.7449C226.542 25.3738 226.594 25.8417 226.676 26.1487C226.811 26.6728 227.051 27.0097 227.395 27.1594V27.53H224.655C224.58 27.3878 224.52 27.2043 224.475 26.9797C224.43 26.7551 224.393 26.3209 224.363 25.677L224.228 22.9255C224.176 21.8474 223.775 21.1249 223.026 20.7581C222.6 20.5559 221.93 20.4548 221.016 20.4548H215.929V27.53H213.694V11.0325ZM230.045 11.0325H232.224V19.0735L240.265 11.0325H243.354L236.492 17.6809L243.544 27.53H240.636L234.863 19.2532L232.224 21.78V27.53H230.045V11.0325Z" fill="white"/>
<defs>
<clipPath id="clip0_39_31223">
<rect width="38" height="38" fill="white" transform="translate(0.968262 0.530029)"/>
</clipPath>
</defs>
</svg>
