<svg width="19" height="22" viewBox="0 0 19 22" fill="none" xmlns="http://www.w3.org/2000/svg">
<path fill-rule="evenodd" clip-rule="evenodd" d="M16.0077 0.590942C14.5164 0.590968 13.4947 0.590942 9.87838 0.590942C5.16945 0.977408 0.910645 4.66253 0.910645 10.4225C0.910645 13.8453 3.1599 20.3951 14.1365 20.3951C15.6354 21.446 16.2805 21.5713 17.2057 21.2598C17.2894 20.3202 16.6812 19.7214 15.3437 18.6257C15.388 17.3068 15.3637 16.5932 14.7888 15.6004C13.9519 15.7211 13.288 16.5714 12.9984 17.9593C11.3844 18.084 9.65347 16.5195 9.65347 14.8975V13.8453C9.85336 13.1745 10.0995 12.9176 10.8389 12.7265H15.4017C16.1763 12.5587 16.4013 12.2563 16.541 11.4568H10.9088C10.4565 11.387 10.225 11.2276 9.84669 10.7331L9.99039 10.5831H18.3882C18.6886 10.4787 18.7964 10.3715 18.8898 10.0982C18.8898 10.0982 19.1379 5.50982 18.8898 3.60213C18.6417 1.69444 17.7285 0.952423 16.0077 0.590942ZM8.95316 7.22699C9.46333 7.22699 9.87691 6.81341 9.87691 6.30324C9.87691 5.79306 9.46333 5.37949 8.95316 5.37949C8.44298 5.37949 8.02941 5.79306 8.02941 6.30324C8.02941 6.81341 8.44298 7.22699 8.95316 7.22699Z" fill="white"/>
</svg>
