<svg width="202" height="46" viewBox="0 0 202 46" fill="none" xmlns="http://www.w3.org/2000/svg">
<path d="M60.6341 17.543C60.4009 8.03453 52.4729 0.365601 42.7313 0.365601C37.9382 0.365601 33.6115 2.20511 30.3988 5.23641C27.2121 2.23102 22.8853 0.365601 18.1181 0.365601C8.37653 0.365601 0.448509 8.08635 0.215332 17.7243V17.7762V17.828C0.215332 25.1601 2.93573 31.689 5.42295 36.1712C6.66656 38.4512 7.93608 40.2907 8.8947 41.5861C9.36105 42.2338 9.77559 42.752 10.0865 43.1147C10.2419 43.2961 10.3715 43.4256 10.4492 43.5552C10.501 43.607 10.5269 43.6329 10.5528 43.6847C10.5788 43.7106 10.5788 43.7106 10.6047 43.7365L10.6306 43.7624L10.6565 43.7883C12.7292 46.146 16.3564 46.4051 18.74 44.3324C21.1235 42.2597 21.3567 38.6844 19.3099 36.3008C19.3099 36.3008 19.3099 36.3008 19.3099 36.2749C19.3099 36.249 19.284 36.249 19.2581 36.223C19.2063 36.1712 19.1545 36.0935 19.0509 35.964C18.8695 35.7308 18.5586 35.3681 18.2218 34.8499C17.4963 33.8654 16.5118 32.4145 15.5532 30.6268C13.5582 27.0255 11.7965 22.4915 11.7705 17.8539C11.9001 14.408 14.75 11.6617 18.2218 11.6617C21.7453 11.6617 24.5953 14.4339 24.673 17.9316C24.6989 18.8125 24.9321 19.6416 25.2948 20.3929C26.1239 22.5174 28.1966 24.046 30.6579 24.046C33.8187 24.046 36.3837 21.5329 36.3837 18.398V17.6725C36.5132 14.2785 39.3632 11.5581 42.8349 11.5581C46.3067 11.5581 49.1566 14.2785 49.2861 17.6725C49.2602 21.3774 48.0684 25.0306 46.6953 27.9064C46.0217 29.3314 45.348 30.4713 44.8817 31.2745C44.6485 31.6631 44.4153 31.974 44.3117 32.1554C44.2599 32.2331 44.2081 32.3109 44.1822 32.3368C44.1562 32.3627 44.1562 32.3627 44.1562 32.3627C44.1303 32.3886 44.1044 32.4404 44.1044 32.4404C45.1667 31.145 46.7471 30.3418 48.5866 30.3418C51.7475 30.3418 54.3124 32.8549 54.3124 35.964C54.3124 37.078 53.9756 38.1144 53.3797 39.0212C53.4056 39.0471 53.4056 39.0471 53.4056 39.0471V39.0212L53.4315 38.9953C53.4574 38.9694 53.4574 38.9694 53.4574 38.9434C53.4833 38.9175 53.5092 38.8916 53.5351 38.8139C53.587 38.7362 53.6906 38.6066 53.7942 38.4512C54.0015 38.1403 54.2865 37.7257 54.6233 37.1558C55.2969 36.0676 56.2037 34.539 57.0846 32.6477C58.8205 28.9427 60.7377 23.5797 60.7377 17.5948V17.543H60.6341Z" fill="white"/>
<path d="M48.6643 30.2122C46.8507 30.2122 45.2443 31.0412 44.1821 32.3108C43.4048 33.2694 42.9385 34.4871 42.9385 35.8084C42.9385 38.9174 45.5034 41.4306 48.6643 41.4306C50.5297 41.4306 52.1619 40.5497 53.2242 39.2024C53.3019 39.0729 53.4055 38.9693 53.4833 38.8397C54.0532 37.9588 54.416 36.9225 54.416 35.7825C54.3641 32.7253 51.8251 30.2122 48.6643 30.2122Z" fill="white"/>
<path d="M198.444 15.5403C199.971 16.5185 200.848 18.2006 201.075 20.5865H195.975C195.903 19.9304 195.718 19.4115 195.42 19.0297C194.86 18.3378 193.905 17.9918 192.557 17.9918C191.448 17.9918 190.654 18.1648 190.177 18.5108C189.712 18.8567 189.479 19.2624 189.479 19.7276C189.479 20.3122 189.73 20.7357 190.231 20.9981C190.732 21.2725 192.503 21.7437 195.545 22.4118C197.574 22.889 199.095 23.6107 200.109 24.577C201.111 25.5553 201.612 26.7781 201.612 28.2454C201.612 30.178 200.89 31.7587 199.446 32.9875C198.015 34.2043 195.796 34.8127 192.79 34.8127C189.724 34.8127 187.457 34.1685 185.99 32.8801C184.534 31.5798 183.807 29.9275 183.807 27.9233H188.978C189.086 28.83 189.318 29.4742 189.676 29.8559C190.308 30.5359 191.477 30.8759 193.183 30.8759C194.185 30.8759 194.979 30.7268 195.563 30.4286C196.16 30.1303 196.458 29.683 196.458 29.0865C196.458 28.5138 196.22 28.0784 195.742 27.7802C195.265 27.4819 193.494 26.9689 190.428 26.2412C188.221 25.6925 186.664 25.0065 185.757 24.1834C184.85 23.3721 184.397 22.203 184.397 20.676C184.397 18.8746 185.101 17.3297 186.509 16.0413C187.928 14.741 189.921 14.0908 192.486 14.0908C194.919 14.0908 196.905 14.574 198.444 15.5403Z" fill="white"/>
<path d="M180.049 14.6456V34.1507H174.877V14.6456H180.049ZM180.049 7.61304V12.3193H174.877V7.61304H180.049Z" fill="white"/>
<path d="M164.713 7.77405H169.813V34.1506H164.713V7.77405Z" fill="white"/>
<path d="M144.94 16.7571C146.288 15.0392 148.602 14.1803 151.883 14.1803C154.018 14.1803 155.915 14.6038 157.573 15.4508C159.232 16.2978 160.061 17.8964 160.061 20.2466V29.1938C160.061 29.8142 160.073 30.5658 160.096 31.4486C160.132 32.1166 160.234 32.57 160.401 32.8085C160.568 33.0471 160.818 33.244 161.152 33.3991V34.1506H155.605C155.45 33.757 155.342 33.3871 155.283 33.0412C155.223 32.6952 155.175 32.3015 155.14 31.8601C154.436 32.6236 153.625 33.2738 152.706 33.8106C151.608 34.4429 150.368 34.7591 148.984 34.7591C147.218 34.7591 145.757 34.258 144.6 33.2559C143.454 32.2419 142.882 30.8103 142.882 28.9612C142.882 26.5633 143.806 24.8276 145.655 23.7539C146.67 23.1693 148.161 22.7518 150.129 22.5013L151.865 22.2865C152.807 22.1672 153.481 22.0181 153.887 21.8392C154.615 21.529 154.979 21.0458 154.979 20.3897C154.979 19.5904 154.698 19.0417 154.138 18.7434C153.589 18.4332 152.778 18.2782 151.704 18.2782C150.499 18.2782 149.646 18.5764 149.145 19.1729C148.787 19.6143 148.548 20.2108 148.429 20.9623H143.508C143.616 19.2564 144.093 17.8546 144.94 16.7571ZM148.733 30.4644C149.211 30.858 149.795 31.0549 150.487 31.0549C151.585 31.0549 152.593 30.7328 153.511 30.0886C154.442 29.4444 154.925 28.2693 154.961 26.5633V24.6665C154.639 24.8693 154.311 25.0363 153.976 25.1676C153.654 25.2869 153.207 25.4002 152.634 25.5076L151.489 25.7223C150.415 25.9132 149.646 26.1458 149.181 26.4202C148.393 26.8854 148 27.6072 148 28.5854C148 29.4563 148.244 30.0826 148.733 30.4644Z" fill="white"/>
<path d="M139.732 19.3518C137.681 19.3518 136.303 20.0199 135.599 21.356C135.205 22.1076 135.008 23.2648 135.008 24.8276V34.1506H129.873V14.6456H134.74V18.0455C135.527 16.7452 136.213 15.8564 136.798 15.3792C137.752 14.5799 138.993 14.1803 140.52 14.1803C140.615 14.1803 140.693 14.1863 140.752 14.1982C140.824 14.1982 140.973 14.2042 141.2 14.2161V19.4413C140.878 19.4055 140.591 19.3817 140.341 19.3697C140.09 19.3578 139.888 19.3518 139.732 19.3518Z" fill="white"/>
<path d="M123.788 17.115C125.435 19.1789 126.258 21.6185 126.258 24.4339C126.258 27.2971 125.435 29.7486 123.788 31.7886C122.142 33.8166 119.643 34.8307 116.291 34.8307C112.938 34.8307 110.439 33.8166 108.793 31.7886C107.146 29.7486 106.323 27.2971 106.323 24.4339C106.323 21.6185 107.146 19.1789 108.793 17.115C110.439 15.0512 112.938 14.0193 116.291 14.0193C119.643 14.0193 122.142 15.0512 123.788 17.115ZM116.273 18.3319C114.781 18.3319 113.63 18.8628 112.819 19.9245C112.02 20.9743 111.62 22.4775 111.62 24.4339C111.62 26.3904 112.02 27.8995 112.819 28.9613C113.63 30.023 114.781 30.5539 116.273 30.5539C117.764 30.5539 118.909 30.023 119.708 28.9613C120.508 27.8995 120.907 26.3904 120.907 24.4339C120.907 22.4775 120.508 20.9743 119.708 19.9245C118.909 18.8628 117.764 18.3319 116.273 18.3319Z" fill="white"/>
<path d="M85.8696 20.0139C85.4401 19.0715 84.599 18.6002 83.3464 18.6002C81.891 18.6002 80.9128 19.0715 80.4117 20.0139C80.1373 20.5507 80.0001 21.35 80.0001 22.4118V34.1506H74.8286V14.6813H79.7854V17.5266C80.4177 16.5125 81.0142 15.7908 81.5749 15.3613C82.565 14.5978 83.8475 14.2161 85.4222 14.2161C86.9134 14.2161 88.1183 14.5441 89.0369 15.2003C89.7765 15.8087 90.3372 16.5901 90.719 17.5445C91.3871 16.3992 92.2162 15.5582 93.2063 15.0213C94.2562 14.4845 95.4253 14.2161 96.7137 14.2161C97.5726 14.2161 98.4196 14.3831 99.2547 14.7171C100.09 15.0511 100.847 15.6357 101.527 16.4708C102.076 17.1508 102.446 17.9859 102.637 18.976C102.756 19.6322 102.816 20.5925 102.816 21.857L102.78 34.1506H97.5547V21.7318C97.5547 20.9921 97.4354 20.3837 97.1968 19.9065C96.7435 18.9999 95.9084 18.5466 94.6916 18.5466C93.2839 18.5466 92.3116 19.1311 91.7748 20.3002C91.5004 20.9206 91.3632 21.6662 91.3632 22.537V34.1506H86.2275V22.537C86.2275 21.3799 86.1082 20.5388 85.8696 20.0139Z" fill="white"/>
</svg>
