<svg width="24" height="24" viewBox="0 0 24 24" fill="none" xmlns="http://www.w3.org/2000/svg">
<path d="M23.9999 11.9997C23.9999 18.6273 18.6273 24 11.9998 24C5.37217 24 -0.000488281 18.6273 -0.000488281 11.9997C-0.000488281 5.37226 5.37217 -0.000366211 11.9998 -0.000366211C18.6272 -0.000366211 23.9999 5.37226 23.9999 11.9997" fill="#00A478"/>
<path d="M10.5698 11.7564V9.32003H7.26535V7.18445H16.4993V9.35011H13.1949V11.7564H10.5698Z" fill="white"/>
<path fill-rule="evenodd" clip-rule="evenodd" d="M5.84473 12.0271C5.84473 11.215 8.50065 10.5532 11.8051 10.5532C15.1096 10.5532 17.7655 11.215 17.7655 12.0271C17.7655 12.8392 15.1096 13.5009 11.8051 13.5009C8.50065 13.5009 5.84473 12.8392 5.84473 12.0271ZM17.2714 12.0271C17.0552 11.7263 15.264 10.7939 11.8051 10.7939C8.34625 10.7939 6.55504 11.6962 6.33886 12.0271C6.55504 12.3279 8.34625 12.7791 11.8051 12.7791C15.2949 12.7791 17.0552 12.3279 17.2714 12.0271Z" fill="white"/>
<path d="M13.1949 12.5084V10.824C12.7625 10.7939 12.2993 10.7638 11.836 10.7638C11.4037 10.7638 11.0022 10.7638 10.6007 10.7939V12.4783C10.9713 12.4783 11.4037 12.5084 11.836 12.5084C12.2993 12.5384 12.7625 12.5384 13.1949 12.5084Z" fill="white"/>
<path d="M11.8051 13.5009C11.3728 13.5009 10.9713 13.501 10.5698 13.4709V17.9526H13.164V13.4408C12.7316 13.4709 12.2684 13.5009 11.8051 13.5009Z" fill="white"/>
</svg>
