<svg width="202" height="32" viewBox="0 0 202 32" fill="none" xmlns="http://www.w3.org/2000/svg">
<path d="M14.4004 26.7418C12.0648 29.0774 4.94457 27.7395 4.94457 27.7395C4.94457 27.7395 3.60668 20.6193 5.94232 18.2836C8.27797 15.948 12.0648 15.948 14.4004 18.2836C16.7361 20.6193 16.7361 24.4061 14.4004 26.7418Z" fill="white"/>
<path fill-rule="evenodd" clip-rule="evenodd" d="M15.3773 0.132446C15.3773 0.132446 12.2421 6.66385 13.8936 9.52438L23.0583 25.1727C24.6925 28.0031 28.3117 28.9729 31.142 27.3388C33.9724 25.7047 34.9422 22.0855 33.308 19.2551L24.2527 3.54357C22.6012 0.683037 15.3773 0.132446 15.3773 0.132446Z" fill="white"/>
<path fill-rule="evenodd" clip-rule="evenodd" d="M33.3837 0.132446C33.3837 0.132446 30.2485 6.66385 31.9 9.52438L41.0647 25.1727C42.6988 28.0031 46.318 28.9729 49.1484 27.3388C51.9787 25.7047 52.9485 22.0855 51.3144 19.2551L42.2591 3.54357C40.6076 0.683037 33.3837 0.132446 33.3837 0.132446Z" fill="white"/>
<path d="M196.536 23.8484C195.554 23.8484 194.625 23.7124 193.748 23.4404C192.872 23.1532 192.184 22.7981 191.686 22.375L192.411 21.1056C192.894 21.4683 193.514 21.7856 194.27 22.0576C195.025 22.3145 195.819 22.443 196.65 22.443C197.783 22.443 198.599 22.2692 199.098 21.9216C199.597 21.5589 199.846 21.0829 199.846 20.4936C199.846 20.0553 199.702 19.7153 199.415 19.4735C199.143 19.2166 198.781 19.0277 198.327 18.9068C197.874 18.7708 197.368 18.6575 196.808 18.5668C196.249 18.4761 195.69 18.3704 195.131 18.2495C194.587 18.1286 194.088 17.9548 193.635 17.7281C193.182 17.4863 192.811 17.1614 192.524 16.7534C192.252 16.3454 192.116 15.8014 192.116 15.1213C192.116 14.4715 192.298 13.8897 192.66 13.3759C193.023 12.8621 193.552 12.4617 194.247 12.1745C194.957 11.8723 195.819 11.7212 196.831 11.7212C197.602 11.7212 198.372 11.827 199.143 12.0385C199.914 12.235 200.549 12.4994 201.047 12.8319L200.345 14.124C199.816 13.7613 199.249 13.5044 198.645 13.3533C198.04 13.187 197.436 13.1039 196.831 13.1039C195.758 13.1039 194.965 13.2928 194.451 13.6706C193.952 14.0333 193.703 14.5018 193.703 15.076C193.703 15.5294 193.839 15.8845 194.111 16.1414C194.398 16.3983 194.768 16.6023 195.222 16.7534C195.69 16.8894 196.196 17.0028 196.74 17.0934C197.3 17.1841 197.851 17.2974 198.395 17.4334C198.954 17.5543 199.461 17.7281 199.914 17.9548C200.382 18.1664 200.753 18.4761 201.025 18.8842C201.312 19.2771 201.455 19.7984 201.455 20.4482C201.455 21.1434 201.259 21.7478 200.866 22.2616C200.488 22.7603 199.929 23.1532 199.189 23.4404C198.463 23.7124 197.579 23.8484 196.536 23.8484Z" fill="white"/>
<path d="M184.12 23.8484C183.093 23.8484 182.164 23.6141 181.332 23.1457C180.501 22.6621 179.836 21.9745 179.338 21.0829C178.854 20.1762 178.612 19.0731 178.612 17.7735C178.612 16.4738 178.854 15.3782 179.338 14.4866C179.821 13.5799 180.479 12.8924 181.31 12.4239C182.141 11.9554 183.078 11.7212 184.12 11.7212C185.254 11.7212 186.266 11.9781 187.158 12.4919C188.065 12.9906 188.775 13.7008 189.289 14.6226C189.802 15.5294 190.059 16.5796 190.059 17.7735C190.059 18.9824 189.802 20.0402 189.289 20.9469C188.775 21.8536 188.065 22.5639 187.158 23.0777C186.266 23.5915 185.254 23.8484 184.12 23.8484ZM177.978 28.1326V11.8345H179.519V15.416L179.36 17.7961L179.587 20.1989V28.1326H177.978ZM184.007 22.4203C184.853 22.4203 185.609 22.2314 186.274 21.8536C186.939 21.4607 187.468 20.9167 187.861 20.2216C188.254 19.5113 188.45 18.6953 188.45 17.7735C188.45 16.8516 188.254 16.0432 187.861 15.348C187.468 14.6529 186.939 14.1088 186.274 13.7159C185.609 13.323 184.853 13.1266 184.007 13.1266C183.161 13.1266 182.398 13.323 181.718 13.7159C181.053 14.1088 180.524 14.6529 180.131 15.348C179.753 16.0432 179.564 16.8516 179.564 17.7735C179.564 18.6953 179.753 19.5113 180.131 20.2216C180.524 20.9167 181.053 21.4607 181.718 21.8536C182.398 22.2314 183.161 22.4203 184.007 22.4203Z" fill="white"/>
<path d="M172.064 23.735V21.1056L171.996 20.6749V16.2774C171.996 15.2649 171.709 14.4866 171.135 13.9426C170.576 13.3986 169.737 13.1266 168.619 13.1266C167.848 13.1266 167.115 13.255 166.42 13.5119C165.725 13.7688 165.136 14.1088 164.652 14.532L163.927 13.3306C164.531 12.8168 165.257 12.4239 166.103 12.1519C166.949 11.8648 167.841 11.7212 168.778 11.7212C170.319 11.7212 171.505 12.1065 172.336 12.8772C173.183 13.6328 173.606 14.7889 173.606 16.3454V23.735H172.064ZM167.962 23.8484C167.07 23.8484 166.292 23.7048 165.627 23.4177C164.977 23.1155 164.478 22.7074 164.131 22.1936C163.783 21.6647 163.609 21.0603 163.609 20.3802C163.609 19.7606 163.753 19.2015 164.04 18.7028C164.342 18.189 164.826 17.781 165.491 17.4788C166.171 17.1614 167.078 17.0028 168.211 17.0028H172.314V18.2041H168.256C167.108 18.2041 166.307 18.4081 165.853 18.8162C165.415 19.2242 165.196 19.7304 165.196 20.3349C165.196 21.0149 165.461 21.5589 165.989 21.967C166.518 22.375 167.259 22.579 168.211 22.579C169.118 22.579 169.896 22.375 170.546 21.967C171.211 21.5438 171.694 20.9394 171.996 20.1536L172.359 21.2643C172.057 22.0501 171.528 22.6772 170.772 23.1457C170.032 23.6141 169.095 23.8484 167.962 23.8484Z" fill="white"/>
<path d="M155.437 11.7212C156.405 11.7212 157.243 11.9101 157.953 12.2879C158.679 12.6506 159.238 13.2097 159.631 13.9653C160.039 14.7209 160.243 15.6729 160.243 16.8214V23.735H158.633V16.9801C158.633 15.7258 158.331 14.7813 157.727 14.1466C157.137 13.4968 156.299 13.1719 155.211 13.1719C154.395 13.1719 153.684 13.3457 153.08 13.6933C152.491 14.0257 152.03 14.5169 151.697 15.1667C151.38 15.8014 151.221 16.5721 151.221 17.4788V23.735H149.612V16.9801C149.612 15.7258 149.31 14.7813 148.705 14.1466C148.101 13.4968 147.254 13.1719 146.166 13.1719C145.365 13.1719 144.663 13.3457 144.058 13.6933C143.454 14.0257 142.985 14.5169 142.653 15.1667C142.335 15.8014 142.177 16.5721 142.177 17.4788V23.735H140.567V11.8345H142.109V15.0533L141.859 14.4866C142.222 13.6253 142.804 12.9528 143.605 12.4692C144.421 11.9705 145.38 11.7212 146.484 11.7212C147.647 11.7212 148.637 12.0159 149.453 12.6052C150.269 13.1795 150.798 14.0484 151.04 15.212L150.405 14.9627C150.753 13.9955 151.365 13.2173 152.241 12.6279C153.133 12.0234 154.198 11.7212 155.437 11.7212Z" fill="white"/>
<path d="M131.941 23.8484C130.702 23.8484 129.614 23.5915 128.677 23.0777C127.74 22.5488 127.007 21.831 126.478 20.9243C125.95 20.0024 125.685 18.9522 125.685 17.7735C125.685 16.5947 125.934 15.552 126.433 14.6453C126.947 13.7386 127.642 13.0284 128.519 12.5146C129.41 11.9856 130.407 11.7212 131.511 11.7212C132.629 11.7212 133.619 11.9781 134.48 12.4919C135.357 12.9906 136.044 13.7008 136.543 14.6226C137.042 15.5294 137.291 16.5796 137.291 17.7735C137.291 17.849 137.283 17.9321 137.268 18.0228C137.268 18.0984 137.268 18.1815 137.268 18.2721H126.909V17.0708H136.407L135.772 17.5468C135.772 16.6854 135.583 15.9223 135.205 15.2573C134.843 14.5773 134.344 14.0484 133.709 13.6706C133.075 13.2928 132.342 13.1039 131.511 13.1039C130.695 13.1039 129.962 13.2928 129.312 13.6706C128.662 14.0484 128.156 14.5773 127.793 15.2573C127.43 15.9374 127.249 16.7156 127.249 17.5921V17.8415C127.249 18.7482 127.446 19.5491 127.838 20.2442C128.247 20.9243 128.806 21.4607 129.516 21.8536C130.241 22.2314 131.065 22.4203 131.987 22.4203C132.712 22.4203 133.385 22.2919 134.004 22.035C134.639 21.7781 135.183 21.3852 135.636 20.8562L136.543 21.899C136.014 22.5337 135.349 23.0172 134.548 23.3497C133.762 23.6821 132.893 23.8484 131.941 23.8484Z" fill="white"/>
<path d="M120.799 23.7349V6.91553H122.409V23.7349H120.799Z" fill="white"/>
<path d="M111.579 23.8483C110.536 23.8483 109.599 23.614 108.768 23.1456C107.937 22.662 107.28 21.9668 106.796 21.0601C106.313 20.1534 106.071 19.0578 106.071 17.7733C106.071 16.4737 106.313 15.3781 106.796 14.4865C107.295 13.5798 107.96 12.8922 108.791 12.4238C109.622 11.9553 110.551 11.7211 111.579 11.7211C112.712 11.7211 113.725 11.978 114.616 12.4918C115.523 12.9905 116.233 13.6932 116.747 14.5999C117.261 15.5066 117.518 16.5644 117.518 17.7733C117.518 18.9672 117.261 20.025 116.747 20.9468C116.233 21.8535 115.523 22.5638 114.616 23.0776C113.725 23.5914 112.712 23.8483 111.579 23.8483ZM105.436 23.7349V6.91553H107.045V15.3479L106.819 17.7507L106.977 20.1534V23.7349H105.436ZM111.466 22.4202C112.312 22.4202 113.067 22.2313 113.732 21.8535C114.397 21.4606 114.926 20.9166 115.319 20.2214C115.712 19.5112 115.908 18.6951 115.908 17.7733C115.908 16.8364 115.712 16.0204 115.319 15.3252C114.926 14.6301 114.397 14.0936 113.732 13.7158C113.067 13.3229 112.312 13.1265 111.466 13.1265C110.619 13.1265 109.856 13.3229 109.176 13.7158C108.511 14.0936 107.982 14.6301 107.589 15.3252C107.212 16.0204 107.023 16.8364 107.023 17.7733C107.023 18.6951 107.212 19.5112 107.589 20.2214C107.982 20.9166 108.511 21.4606 109.176 21.8535C109.856 22.2313 110.619 22.4202 111.466 22.4202Z" fill="white"/>
<path d="M96.2167 23.8483C95.1739 23.8483 94.237 23.614 93.4059 23.1456C92.5747 22.662 91.9174 21.9668 91.4338 21.0601C90.9502 20.1534 90.7084 19.0578 90.7084 17.7733C90.7084 16.4737 90.9502 15.3781 91.4338 14.4865C91.9325 13.5798 92.5974 12.8922 93.4285 12.4238C94.2597 11.9553 95.1891 11.7211 96.2167 11.7211C97.35 11.7211 98.3625 11.978 99.2541 12.4918C100.161 12.9905 100.871 13.6932 101.385 14.5999C101.899 15.5066 102.156 16.5644 102.156 17.7733C102.156 18.9672 101.899 20.025 101.385 20.9468C100.871 21.8535 100.161 22.5638 99.2541 23.0776C98.3625 23.5914 97.35 23.8483 96.2167 23.8483ZM90.0737 23.7349V6.91553H91.6831V15.3479L91.4565 17.7507L91.6151 20.1534V23.7349H90.0737ZM96.1033 22.4202C96.9496 22.4202 97.7052 22.2313 98.3701 21.8535C99.035 21.4606 99.5639 20.9166 99.9568 20.2214C100.35 19.5112 100.546 18.6951 100.546 17.7733C100.546 16.8364 100.35 16.0204 99.9568 15.3252C99.5639 14.6301 99.035 14.0936 98.3701 13.7158C97.7052 13.3229 96.9496 13.1265 96.1033 13.1265C95.2571 13.1265 94.4939 13.3229 93.8139 13.7158C93.149 14.0936 92.6201 14.6301 92.2272 15.3252C91.8494 16.0204 91.6605 16.8364 91.6605 17.7733C91.6605 18.6951 91.8494 19.5112 92.2272 20.2214C92.6201 20.9166 93.149 21.4606 93.8139 21.8535C94.4939 22.2313 95.2571 22.4202 96.1033 22.4202Z" fill="white"/>
<path d="M79.7632 23.8481C78.7507 23.8481 77.8666 23.6592 77.1111 23.2814C76.3555 22.9036 75.7661 22.3369 75.343 21.5813C74.935 20.8257 74.731 19.8812 74.731 18.7479V11.8342H76.3404V18.5665C76.3404 19.8359 76.6502 20.7955 77.2697 21.4453C77.9044 22.08 78.7885 22.3973 79.9218 22.3973C80.753 22.3973 81.4708 22.2311 82.0753 21.8987C82.6949 21.5511 83.1633 21.0524 83.4807 20.4026C83.8131 19.7528 83.9794 18.9745 83.9794 18.0678V11.8342H85.5888V23.7347H84.0474V20.4706L84.2967 21.06C83.9189 21.9364 83.3295 22.624 82.5286 23.1227C81.7428 23.6063 80.821 23.8481 79.7632 23.8481Z" fill="white"/>
<path d="M65.6244 23.8483C64.5817 23.8483 63.6447 23.614 62.8136 23.1456C61.9824 22.662 61.3251 21.9668 60.8415 21.0601C60.3579 20.1534 60.1161 19.0578 60.1161 17.7733C60.1161 16.4737 60.3579 15.3781 60.8415 14.4865C61.3402 13.5798 62.0051 12.8922 62.8363 12.4238C63.6674 11.9553 64.5968 11.7211 65.6244 11.7211C66.7578 11.7211 67.7702 11.978 68.6618 12.4918C69.5685 12.9905 70.2788 13.6932 70.7926 14.5999C71.3064 15.5066 71.5633 16.5644 71.5633 17.7733C71.5633 18.9672 71.3064 20.025 70.7926 20.9468C70.2788 21.8535 69.5685 22.5638 68.6618 23.0776C67.7702 23.5914 66.7578 23.8483 65.6244 23.8483ZM59.4814 23.7349V6.91553H61.0908V15.3479L60.8642 17.7507L61.0228 20.1534V23.7349H59.4814ZM65.511 22.4202C66.3573 22.4202 67.1129 22.2313 67.7778 21.8535C68.4427 21.4606 68.9716 20.9166 69.3645 20.2214C69.7574 19.5112 69.9539 18.6951 69.9539 17.7733C69.9539 16.8364 69.7574 16.0204 69.3645 15.3252C68.9716 14.6301 68.4427 14.0936 67.7778 13.7158C67.1129 13.3229 66.3573 13.1265 65.511 13.1265C64.6648 13.1265 63.9016 13.3229 63.2216 13.7158C62.5567 14.0936 62.0278 14.6301 61.6349 15.3252C61.2571 16.0204 61.0682 16.8364 61.0682 17.7733C61.0682 18.6951 61.2571 19.5112 61.6349 20.2214C62.0278 20.9166 62.5567 21.4606 63.2216 21.8535C63.9016 22.2313 64.6648 22.4202 65.511 22.4202Z" fill="white"/>
</svg>
