<svg width="223" height="62" viewBox="0 0 223 62" fill="none" xmlns="http://www.w3.org/2000/svg">
<path d="M92.0624 31.5209C94.3943 32.8709 95.5807 34.9165 95.5807 37.6575C95.5807 39.9076 94.7625 41.7895 93.167 43.2622C91.5715 44.735 89.5669 45.4305 87.235 45.4305H75.8618V18.634H86.4577C88.7487 18.634 90.7124 19.3704 92.267 20.7614C93.8216 22.1933 94.5989 23.9933 94.5989 26.1616C94.6398 28.4117 93.7807 30.1708 92.0624 31.5209ZM86.4577 23.5842H81.1802V29.4754H86.4577C87.2759 29.4754 87.9714 29.189 88.5032 28.6162C89.035 28.0435 89.3214 27.348 89.3214 26.4889C89.3214 25.6298 89.0759 24.9343 88.5032 24.3615C87.9714 23.8706 87.2759 23.5842 86.4577 23.5842ZM87.235 40.5212C88.135 40.5212 88.8714 40.2349 89.4442 39.6212C90.0169 39.0075 90.3442 38.2302 90.3442 37.3302C90.3442 36.4302 90.0578 35.6938 89.4442 35.0801C88.8714 34.4665 88.135 34.1801 87.235 34.1801H81.1393V40.5212H87.235Z" fill="white"/>
<path d="M101.267 23.9933C100.448 23.9933 99.7529 23.7069 99.1393 23.0932C98.5256 22.4796 98.2393 21.7841 98.2393 20.9659C98.2393 20.1477 98.5256 19.4522 99.1393 18.7976C99.7529 18.184 100.448 17.8976 101.267 17.8976C102.126 17.8976 102.821 18.184 103.435 18.7976C104.049 19.4113 104.335 20.1068 104.335 20.9659C104.335 21.7841 104.049 22.4796 103.435 23.0932C102.862 23.7069 102.126 23.9933 101.267 23.9933ZM98.812 45.4304V26.2843H103.762V45.4304H98.812Z" fill="white"/>
<path d="M119.267 31.0302H114.931V39.0078C114.931 39.6624 115.095 40.1533 115.422 40.4806C115.749 40.767 116.24 40.9715 116.895 41.0124C117.508 41.0533 118.327 41.0533 119.267 40.9715V45.4717C115.872 45.8808 113.499 45.5535 112.067 44.5307C110.676 43.508 109.981 41.667 109.981 39.0487V31.0711H106.667V26.3255H109.981V22.439L114.931 20.9253V26.2846H119.267V31.0302Z" fill="white"/>
<path d="M136.696 26.2845H141.646V53.1219H136.696V43.1806C135.223 45.0625 133.178 46.0035 130.477 46.0035C127.9 46.0035 125.691 45.0216 123.85 43.0579C122.009 41.0942 121.109 38.7214 121.109 35.8576C121.109 32.9939 122.009 30.6211 123.85 28.6573C125.691 26.6936 127.859 25.7118 130.477 25.7118C133.137 25.7118 135.223 26.6527 136.696 28.5346V26.2845ZM127.573 39.7441C128.555 40.726 129.864 41.2578 131.377 41.2578C132.891 41.2578 134.2 40.7669 135.182 39.7441C136.164 38.7623 136.696 37.4531 136.696 35.8576C136.696 34.2621 136.205 32.9939 135.182 31.9711C134.2 30.9893 132.932 30.4574 131.377 30.4574C129.864 30.4574 128.555 30.9483 127.573 31.9711C126.591 32.953 126.059 34.2621 126.059 35.8576C126.059 37.4531 126.55 38.7623 127.573 39.7441Z" fill="white"/>
<path d="M158.788 26.2846H163.738V45.4308H158.788V43.2625C157.601 45.0626 155.678 45.9217 153.101 45.9217C151.015 45.9217 149.255 45.2262 147.905 43.7943C146.514 42.3625 145.86 40.4397 145.86 37.9441V26.1619H150.769V37.2895C150.769 38.5578 151.096 39.5396 151.833 40.2351C152.528 40.8897 153.428 41.2579 154.615 41.2579C155.883 41.2579 156.906 40.8488 157.683 40.0715C158.46 39.2942 158.829 38.1078 158.829 36.5122L158.788 26.2846Z" fill="white"/>
<path d="M172.452 37.9032C173.106 40.3169 174.906 41.5033 177.852 41.5033C179.734 41.5033 181.166 40.8896 182.147 39.5805L186.116 41.8715C184.234 44.6125 181.452 45.9626 177.77 45.9626C174.579 45.9626 172.083 45.0216 170.161 43.0988C168.238 41.176 167.297 38.7623 167.297 35.8576C167.297 32.953 168.238 30.5802 170.12 28.6164C172.002 26.6936 174.415 25.7118 177.402 25.7118C180.225 25.7118 182.557 26.6936 184.357 28.6164C186.198 30.5392 187.098 32.953 187.098 35.8167C187.098 36.4304 187.016 37.1259 186.893 37.8213H172.452V37.9032ZM172.37 34.0576H182.147C181.861 32.7484 181.288 31.8075 180.388 31.1529C179.529 30.5392 178.506 30.212 177.402 30.212C176.093 30.212 174.947 30.5802 174.129 31.2347C173.229 31.8893 172.656 32.8302 172.37 34.0576Z" fill="white"/>
<path d="M195.484 29.5985C195.934 28.3711 196.712 27.4302 197.775 26.8165C198.839 26.2029 200.025 25.9165 201.335 25.9165V31.4394C199.821 31.2758 198.471 31.5622 197.284 32.3395C196.098 33.1168 195.484 34.4668 195.484 36.2669V45.4309H190.534V26.2847H195.484V29.5985Z" fill="white"/>
<path d="M217.085 26.2844H222.362L215.367 45.4715C214.385 48.2125 213.076 50.1762 211.398 51.4445C209.762 52.6718 207.716 53.2445 205.262 53.1218V48.5398C206.571 48.5807 207.635 48.2943 208.412 47.6807C209.189 47.1079 209.803 46.167 210.253 44.8578L202.398 26.3253H207.798L212.789 39.2122L217.085 26.2844Z" fill="white"/>
<path opacity="0.7" d="M32.8235 61.0994C32.578 61.1403 32.3326 61.1403 32.0462 61.1403H18.0138C17.032 61.1403 16.0501 61.0585 15.0683 60.8948L16.9092 54.9219C17.6866 52.3445 16.9092 49.5626 14.9046 47.8034L12.1227 45.3488C10.6499 44.0397 9.83171 42.1987 9.83171 40.235V28.4936C9.83171 27.7572 9.70898 26.9799 9.46351 26.2844L0.954102 1.0835L15.8456 22.0707C16.5411 23.0525 16.9911 24.198 17.1138 25.4253L18.0547 34.2211C18.3002 36.6348 19.773 38.7622 21.9413 39.8259L27.1778 42.4851C29.2643 43.5487 30.737 45.5943 31.0234 47.9262L32.8235 61.0994Z" fill="white"/>
<path d="M49.1467 18.1025C46.7739 14.9114 43.2556 12.7432 39.2873 12.1704L30.8597 10.9022C29.6733 10.7385 28.4869 10.3703 27.4232 9.87942C26.3595 9.38849 25.2958 8.73392 24.3958 7.95662C22.5139 6.40201 20.3047 5.29743 17.9319 4.76559L0.953999 1.04272H0.913086H31.8824C40.7191 1.04272 48.124 7.79297 49.024 16.3842C49.1058 16.916 49.1467 17.4888 49.1467 18.1025Z" fill="white"/>
<path opacity="0.8" d="M49.1467 18.1025C49.1467 18.2661 49.1467 18.3889 49.1467 18.5525C49.1467 18.6752 49.1467 18.7571 49.1058 18.8798C49.1058 18.9616 49.1058 19.0025 49.1058 19.0434C49.1058 19.1662 49.0649 19.248 49.0649 19.3298C49.0649 19.3707 49.0649 19.4116 49.0649 19.4525C49.024 19.5753 49.024 19.698 49.024 19.8207C49.024 19.8616 49.024 19.8616 49.024 19.8616C48.9831 19.9844 48.9831 20.0662 48.9831 20.1889C48.9831 20.2298 48.9831 20.2707 48.9422 20.3117C48.9013 20.4344 48.9013 20.5571 48.8603 20.7208C48.8194 20.8435 48.8194 20.9253 48.8194 21.0071C48.7785 21.1708 48.7376 21.3753 48.6967 21.539C48.6558 21.6617 48.6149 21.7844 48.6149 21.9072C48.6149 21.9481 48.6149 21.9481 48.6149 21.9481C48.574 22.0708 48.5331 22.1935 48.4921 22.3572C48.4512 22.4799 48.4103 22.5618 48.4103 22.6845C48.3285 22.9299 48.2876 23.1754 48.2058 23.38C48.1649 23.4618 48.124 23.5436 48.124 23.6254C48.083 23.7482 48.0421 23.8709 48.0012 24.0345C47.8785 24.4027 47.7148 24.7709 47.5512 25.0982C47.4694 25.2209 47.4285 25.3437 47.3876 25.4664C47.3057 25.5891 47.2648 25.7119 47.2239 25.7937C47.183 25.8755 47.1421 25.9164 47.1012 25.9982C47.0603 26.0801 47.0194 26.1619 46.9785 26.2437C46.5694 26.9392 46.1602 27.6347 45.6693 28.2892C45.5875 28.3711 45.5466 28.4529 45.4648 28.5347C45.2602 28.8211 45.0147 29.0665 44.8102 29.3529C44.6465 29.5166 44.5238 29.6802 44.3602 29.8438C44.2784 29.9666 44.1556 30.0484 44.0738 30.1302C43.9102 30.2939 43.7874 30.4166 43.5829 30.5802C43.4192 30.7439 43.2556 30.8666 43.0919 31.0302L0.913086 0.960938H0.953999L17.9319 4.6838C20.3047 5.21564 22.5139 6.32023 24.3958 7.87483C25.3367 8.65213 26.3595 9.3067 27.4232 9.79763C28.4869 10.2886 29.6733 10.6568 30.8597 10.8204L39.2873 12.0886C43.2147 12.7432 46.7739 14.8705 49.1467 18.1025Z" fill="white"/>
<path opacity="0.8" d="M48.8604 47.1899C47.4286 54.8811 40.842 60.7313 32.8235 61.0995L31.0643 47.8854C30.737 45.5535 29.3052 43.508 27.2187 42.4443L21.9822 39.7851C19.8139 38.7214 18.382 36.5941 18.0957 34.1803L17.1547 25.3845C17.032 24.1572 16.582 23.0117 15.8865 22.0299L0.954102 1.04272L25.8687 24.7709C26.4005 25.3027 26.8505 25.9164 27.1778 26.6119C27.2187 26.6937 27.2596 26.7346 27.2596 26.8164C27.5051 27.4301 27.7097 28.0847 27.7506 28.7801C27.9551 31.2348 29.6325 33.3621 31.9644 34.1394L34.8281 35.1213L41.7011 37.4532C43.2148 37.985 44.4421 39.0078 45.1785 40.4397L48.8604 47.1899Z" fill="white"/>
<path opacity="0.5" d="M16.9092 54.84L15.0683 60.8129C7.04979 59.422 0.954102 52.3853 0.954102 43.9987V1.00159L9.46351 26.2025C9.70898 26.898 9.83171 27.6344 9.83171 28.4117V40.1531C9.83171 42.1168 10.6908 43.9578 12.1227 45.2669L14.9046 47.7215C16.9092 49.5216 17.6865 52.3035 16.9092 54.84Z" fill="white"/>
<path d="M49.1465 44.0396C49.1465 45.1032 49.0238 46.1669 48.8602 47.1897L45.26 40.4394C44.4827 39.0485 43.2554 37.9848 41.7826 37.453L34.9096 35.1211L32.0459 34.1392C29.714 33.321 28.0367 31.2345 27.8321 28.7799C27.7503 28.1253 27.5866 27.4299 27.3412 26.8162C27.3003 26.7344 27.2594 26.6935 27.2594 26.6116C26.9321 25.9571 26.4821 25.3025 25.9502 24.7707L1.03564 1.00159L43.1736 31.03C46.8146 34.1801 49.1465 38.803 49.1465 44.0396Z" fill="white"/>
</svg>
