<svg width="200" height="30" viewBox="0 0 200 30" fill="none" xmlns="http://www.w3.org/2000/svg">
<path d="M191.463 14.6002H189.919V3.80225H191.463L197.954 12.1756V3.80225H199.498V14.6002H197.954L191.463 6.2269V14.6002Z" fill="white"/>
<path d="M187.14 3.80225V14.6002H185.597V3.80225H187.14Z" fill="white"/>
<path d="M179.58 3.80225L183.744 14.6002H182.201L181.244 12.1153H176.373L175.416 14.6002H173.873L178.037 3.80225H179.58ZM176.96 10.5717H180.65L178.812 5.81275L176.96 10.5717Z" fill="white"/>
<path d="M172.02 3.80225V14.6002H170.477V9.97683H164.295V14.6002H162.751V3.80225H164.295V8.43318H170.477V3.80225H172.02Z" fill="white"/>
<path d="M151.335 5.34589C151.335 5.13505 151.376 4.93676 151.456 4.75102C151.536 4.56026 151.647 4.39711 151.787 4.26157C151.928 4.12102 152.091 4.01058 152.277 3.93026C152.467 3.84492 152.668 3.80225 152.879 3.80225H158.737C158.948 3.80225 159.147 3.84492 159.332 3.93026C159.523 4.01058 159.689 4.12102 159.829 4.26157C159.97 4.39711 160.08 4.56026 160.161 4.75102C160.241 4.93676 160.281 5.13505 160.281 5.34589V6.73894H158.737V5.34589H152.879V13.0566H158.737V11.6711H160.281V13.0566C160.281 13.2674 160.241 13.4682 160.161 13.659C160.08 13.8447 159.97 14.0079 159.829 14.1484C159.689 14.289 159.523 14.3994 159.332 14.4798C159.147 14.5601 158.948 14.6002 158.737 14.6002H152.879C152.668 14.6002 152.467 14.5601 152.277 14.4798C152.091 14.3994 151.928 14.289 151.787 14.1484C151.647 14.0079 151.536 13.8447 151.456 13.659C151.376 13.4682 151.335 13.2674 151.335 13.0566V5.34589Z" fill="white"/>
<path d="M135.907 14.6002H134.363V3.80225H135.907L142.398 12.1756V3.80225H143.941V14.6002H142.398L135.907 6.2269V14.6002Z" fill="white"/>
<path d="M131.584 13.0566C131.584 13.2674 131.544 13.4682 131.464 13.659C131.384 13.8447 131.273 14.0079 131.133 14.1484C130.992 14.289 130.826 14.3994 130.636 14.4798C130.45 14.5601 130.252 14.6002 130.041 14.6002H123.874C123.663 14.6002 123.462 14.5601 123.271 14.4798C123.086 14.3994 122.922 14.289 122.782 14.1484C122.641 14.0079 122.531 13.8447 122.451 13.659C122.37 13.4682 122.33 13.2674 122.33 13.0566V5.34589C122.33 5.13505 122.37 4.93676 122.451 4.75102C122.531 4.56026 122.641 4.39711 122.782 4.26157C122.922 4.12102 123.086 4.01058 123.271 3.93026C123.462 3.84492 123.663 3.80225 123.874 3.80225H130.041C130.252 3.80225 130.45 3.84492 130.636 3.93026C130.826 4.01058 130.992 4.12102 131.133 4.26157C131.273 4.39711 131.384 4.56026 131.464 4.75102C131.544 4.93676 131.584 5.13505 131.584 5.34589V13.0566ZM123.874 5.34589V13.0566H130.041V5.34589H123.874Z" fill="white"/>
<path d="M107.217 3.80225H115.854V5.34589H112.308V14.6002H110.764V5.34589H107.217V3.80225Z" fill="white"/>
<path d="M105.365 13.0566C105.365 13.2674 105.325 13.4682 105.245 13.659C105.164 13.8447 105.054 14.0079 104.913 14.1484C104.773 14.289 104.607 14.3994 104.416 14.4798C104.231 14.5601 104.032 14.6002 103.822 14.6002H97.6545C97.4436 14.6002 97.2428 14.5601 97.0521 14.4798C96.8663 14.3994 96.7032 14.289 96.5626 14.1484C96.4221 14.0079 96.3116 13.8447 96.2313 13.659C96.151 13.4682 96.1108 13.2674 96.1108 13.0566V5.34589C96.1108 5.13505 96.151 4.93676 96.2313 4.75102C96.3116 4.56026 96.4221 4.39711 96.5626 4.26157C96.7032 4.12102 96.8663 4.01058 97.0521 3.93026C97.2428 3.84492 97.4436 3.80225 97.6545 3.80225H103.822C104.032 3.80225 104.231 3.84492 104.416 3.93026C104.607 4.01058 104.773 4.12102 104.913 4.26157C105.054 4.39711 105.164 4.56026 105.245 4.75102C105.325 4.93676 105.365 5.13505 105.365 5.34589V13.0566ZM97.6545 5.34589V13.0566H103.822V5.34589H97.6545Z" fill="white"/>
<path d="M85.418 14.6002V3.80225H91.329C93.076 3.80225 93.9494 4.67823 93.9494 6.43021V7.96632C93.9494 9.7183 93.076 10.5943 91.329 10.5943H86.9616V14.6002H85.418ZM86.9616 9.05064H91.2462C91.6578 9.05064 91.954 8.96028 92.1347 8.77956C92.3154 8.59884 92.4058 8.30266 92.4058 7.89102V6.50551C92.4058 6.09387 92.3154 5.79769 92.1347 5.61697C91.954 5.43625 91.6578 5.34589 91.2462 5.34589H86.9616V9.05064Z" fill="white"/>
<path d="M75.8471 9.97683C75.6362 9.97683 75.4354 9.93667 75.2447 9.85635C75.0589 9.77101 74.8958 9.66057 74.7552 9.52503C74.6147 9.38447 74.5042 9.22132 74.4239 9.03558C74.3436 8.84482 74.3034 8.64402 74.3034 8.43318V5.34589C74.3034 5.13505 74.3436 4.93676 74.4239 4.75102C74.5042 4.56026 74.6147 4.39711 74.7552 4.26157C74.8958 4.12102 75.0589 4.01058 75.2447 3.93026C75.4354 3.84492 75.6362 3.80225 75.8471 3.80225H81.0879C81.2988 3.80225 81.4971 3.84492 81.6828 3.93026C81.8736 4.01058 82.0392 4.12102 82.1798 4.26157C82.3203 4.39711 82.4308 4.56026 82.5111 4.75102C82.5914 4.93676 82.6316 5.13505 82.6316 5.34589V6.73894H81.0879V5.34589H75.8471V8.43318H81.0879C81.2988 8.43318 81.4971 8.47334 81.6828 8.55366C81.8736 8.63398 82.0392 8.74442 82.1798 8.88498C82.3203 9.02554 82.4308 9.1912 82.5111 9.38196C82.5914 9.5677 82.6316 9.76599 82.6316 9.97683V13.0566C82.6316 13.2674 82.5914 13.4682 82.5111 13.659C82.4308 13.8447 82.3203 14.0079 82.1798 14.1484C82.0392 14.289 81.8736 14.3994 81.6828 14.4798C81.4971 14.5601 81.2988 14.6002 81.0879 14.6002H75.6965C75.4856 14.6002 75.2848 14.5601 75.0941 14.4798C74.9083 14.3994 74.7452 14.289 74.6046 14.1484C74.4641 14.0079 74.3536 13.8447 74.2733 13.659C74.193 13.4682 74.1528 13.2674 74.1528 13.0566V11.6711H75.6965V13.0566H81.0879V9.97683H75.8471Z" fill="white"/>
<path d="M152.299 20.8065C152.246 20.7817 152.183 20.7542 152.109 20.7239C152.037 20.6908 151.956 20.6619 151.865 20.6371C151.774 20.6096 151.674 20.5876 151.563 20.5711C151.456 20.5518 151.34 20.5421 151.216 20.5421C151.049 20.5421 150.885 20.5504 150.725 20.5669C150.565 20.5834 150.423 20.6137 150.299 20.6578C150.176 20.7019 150.075 20.7611 149.998 20.8354C149.924 20.9098 149.886 21.0062 149.886 21.1246C149.886 21.2237 149.924 21.3091 149.998 21.3807C150.072 21.4495 150.169 21.5101 150.287 21.5624C150.408 21.612 150.545 21.6561 150.696 21.6946C150.847 21.7304 151 21.7648 151.155 21.7979C151.309 21.8309 151.457 21.864 151.601 21.897C151.744 21.9273 151.868 21.9617 151.972 22.0003C152.094 22.0471 152.206 22.1063 152.311 22.1779C152.419 22.2495 152.512 22.3335 152.592 22.4299C152.672 22.5235 152.734 22.6282 152.778 22.7438C152.825 22.8567 152.848 22.9793 152.848 23.1115C152.848 23.2904 152.814 23.4515 152.745 23.5947C152.676 23.7352 152.582 23.8605 152.464 23.9706C152.348 24.078 152.213 24.1717 152.059 24.2515C151.905 24.3286 151.741 24.3934 151.568 24.4457C151.397 24.4952 151.222 24.531 151.043 24.5531C150.867 24.5779 150.697 24.5903 150.535 24.5903C150.441 24.5903 150.324 24.5806 150.184 24.5613C150.046 24.5448 149.904 24.5214 149.758 24.4911C149.615 24.4581 149.479 24.4195 149.349 24.3755C149.22 24.3314 149.119 24.2846 149.048 24.235L149.32 23.6484C149.387 23.6815 149.473 23.7145 149.581 23.7476C149.688 23.7806 149.801 23.8109 149.919 23.8385C150.038 23.866 150.152 23.888 150.262 23.9046C150.375 23.9211 150.469 23.9293 150.543 23.9293C150.629 23.9293 150.724 23.9252 150.828 23.9169C150.936 23.9059 151.044 23.8894 151.155 23.8674C151.267 23.8426 151.376 23.8109 151.481 23.7724C151.588 23.7311 151.683 23.6801 151.766 23.6195C151.848 23.5589 151.915 23.4873 151.964 23.4047C152.016 23.3221 152.043 23.2257 152.043 23.1156C152.043 23.0082 152.007 22.9173 151.935 22.843C151.864 22.7686 151.769 22.7053 151.65 22.6529C151.532 22.6006 151.398 22.5566 151.25 22.5208C151.104 22.4822 150.953 22.4464 150.799 22.4134C150.645 22.3803 150.496 22.3473 150.353 22.3142C150.21 22.2784 150.085 22.2344 149.977 22.182C149.82 22.1077 149.689 22.0278 149.585 21.9425C149.483 21.8543 149.4 21.7621 149.337 21.6657C149.276 21.5693 149.234 21.4688 149.209 21.3642C149.184 21.2595 149.172 21.1521 149.172 21.042C149.172 20.8464 149.227 20.6771 149.337 20.5339C149.45 20.3907 149.6 20.2736 149.787 20.1828C149.975 20.0891 150.189 20.0203 150.432 19.9762C150.674 19.9294 150.927 19.906 151.192 19.906C151.335 19.906 151.474 19.9143 151.609 19.9308C151.747 19.9473 151.875 19.9693 151.993 19.9969C152.114 20.0244 152.222 20.0561 152.315 20.0919C152.409 20.1249 152.483 20.1594 152.538 20.1952L152.299 20.8065Z" fill="white"/>
<path d="M145.31 22.9669C145.31 23.1487 145.32 23.3015 145.339 23.4254C145.361 23.5466 145.392 23.6457 145.43 23.7228C145.471 23.7972 145.521 23.8509 145.579 23.8839C145.639 23.9142 145.708 23.9294 145.785 23.9294C145.915 23.9294 146.043 23.9142 146.17 23.8839C146.296 23.8536 146.415 23.8192 146.525 23.7807C146.635 23.7393 146.733 23.6994 146.818 23.6609C146.903 23.6196 146.969 23.5893 147.016 23.57L147.301 24.0698C147.277 24.0918 147.216 24.1318 147.12 24.1896C147.026 24.2447 146.906 24.3025 146.76 24.3631C146.617 24.4237 146.455 24.476 146.273 24.5201C146.091 24.5669 145.901 24.5903 145.703 24.5903C145.455 24.5903 145.255 24.5448 145.104 24.454C144.955 24.3631 144.841 24.2392 144.761 24.0822C144.681 23.9252 144.629 23.7435 144.604 23.5369C144.579 23.3277 144.567 23.1046 144.567 22.8678V20.6372H143.365V19.9763H144.567V19.1129L145.29 18.6544V19.9763H147.289L147.206 20.6372H145.31V22.9669Z" fill="white"/>
<path d="M139.194 24.52H138.451V18.737L138.368 17.9109L139.194 17.8282V20.5958L139.562 20.1208C139.669 20.0602 139.824 20.0093 140.025 19.968C140.226 19.9267 140.484 19.906 140.801 19.906C141.217 19.906 141.534 20.0437 141.751 20.3191C141.972 20.5917 142.082 20.9869 142.082 21.5046V24.52H141.297V21.5913C141.297 21.4068 141.28 21.2499 141.247 21.1204C141.217 20.991 141.173 20.885 141.115 20.8024C141.057 20.7198 140.986 20.6606 140.9 20.6248C140.815 20.5862 140.719 20.5669 140.611 20.5669C140.446 20.5669 140.288 20.5834 140.136 20.6165C139.987 20.6495 139.851 20.6922 139.727 20.7445C139.603 20.7941 139.494 20.8492 139.401 20.9098C139.31 20.9704 139.241 21.0268 139.194 21.0791V24.52Z" fill="white"/>
<path d="M135.965 23.9623L135.605 24.4167C135.58 24.4332 135.545 24.4511 135.498 24.4704C135.454 24.4897 135.399 24.5076 135.333 24.5241C135.266 24.5434 135.189 24.5585 135.101 24.5695C135.013 24.5833 134.915 24.5902 134.808 24.5902C134.64 24.5902 134.475 24.5627 134.312 24.5076C134.15 24.4525 133.994 24.374 133.845 24.2721C133.7 24.1702 133.565 24.0491 133.441 23.9086C133.317 23.7654 133.208 23.6085 133.114 23.4377C133.023 23.2642 132.952 23.0797 132.9 22.8842C132.85 22.6859 132.825 22.4808 132.825 22.2687C132.825 21.9465 132.878 21.6422 132.982 21.3558C133.087 21.0694 133.234 20.8188 133.424 20.604C133.614 20.3892 133.843 20.2199 134.11 20.096C134.377 19.9693 134.673 19.9059 134.998 19.9059C135.1 19.9059 135.199 19.9101 135.295 19.9183C135.395 19.9266 135.487 19.9459 135.572 19.9762L135.965 20.5627V19.8936L136.708 19.9762V24.71C136.708 24.9799 136.664 25.2332 136.576 25.47C136.488 25.7069 136.36 25.912 136.192 26.0855C136.024 26.2618 135.817 26.4008 135.572 26.5027C135.327 26.6046 135.048 26.6556 134.734 26.6556C134.516 26.6556 134.325 26.628 134.159 26.5729C133.997 26.5179 133.858 26.4573 133.742 26.3912C133.676 26.3526 133.614 26.3113 133.556 26.2673C133.499 26.2232 133.446 26.175 133.399 26.1227L133.804 25.6683C133.843 25.6986 133.884 25.7275 133.928 25.7551C133.975 25.7826 134.023 25.8088 134.073 25.8335C134.158 25.8749 134.257 25.912 134.37 25.9451C134.483 25.9781 134.606 25.9946 134.738 25.9946C134.908 25.9946 135.068 25.9588 135.217 25.8872C135.366 25.8184 135.495 25.7234 135.605 25.6022C135.718 25.4811 135.806 25.3379 135.87 25.1726C135.933 25.0102 135.965 24.8353 135.965 24.648V23.9623ZM135.965 21.0749C135.893 20.9841 135.806 20.9001 135.704 20.823C135.619 20.7596 135.516 20.7018 135.395 20.6495C135.273 20.5944 135.134 20.5669 134.977 20.5669C134.812 20.5669 134.663 20.593 134.531 20.6453C134.399 20.6977 134.282 20.7679 134.18 20.856C134.081 20.9441 133.994 21.0474 133.92 21.1658C133.848 21.2815 133.789 21.4054 133.742 21.5376C133.698 21.667 133.665 21.7992 133.643 21.9341C133.621 22.0663 133.61 22.1944 133.61 22.3183C133.61 22.5524 133.646 22.7685 133.717 22.9668C133.792 23.1623 133.888 23.3317 134.007 23.4749C134.125 23.6153 134.26 23.7255 134.411 23.8054C134.563 23.8852 134.717 23.9251 134.874 23.9251C135.014 23.9251 135.14 23.91 135.25 23.8797C135.36 23.8494 135.459 23.8095 135.547 23.7599C135.635 23.7076 135.713 23.6498 135.779 23.5864C135.848 23.5203 135.909 23.4529 135.965 23.384V21.0749Z" fill="white"/>
<path d="M129.769 22.8966C129.769 23.0398 129.777 23.172 129.794 23.2931C129.813 23.4143 129.843 23.5189 129.885 23.6071C129.926 23.6952 129.981 23.764 130.05 23.8136C130.119 23.8632 130.204 23.8879 130.306 23.8879C130.441 23.8879 130.572 23.8769 130.698 23.8549C130.828 23.8329 130.944 23.8081 131.045 23.7805C131.147 23.7503 131.231 23.7227 131.297 23.6979C131.366 23.6731 131.409 23.658 131.425 23.6525L131.587 24.2886C131.57 24.2969 131.526 24.3175 131.454 24.3506C131.383 24.3836 131.289 24.4181 131.173 24.4539C131.058 24.4869 130.923 24.5172 130.769 24.5447C130.614 24.575 130.446 24.5902 130.265 24.5902C129.995 24.5902 129.776 24.5461 129.608 24.458C129.443 24.3699 129.313 24.2487 129.22 24.0945C129.126 23.9375 129.063 23.753 129.03 23.541C128.999 23.3289 128.984 23.1004 128.984 22.8553V20.7197L129.149 20.4718L128.571 20.6371H127.741L127.658 19.9761H129.769V22.8966ZM128.959 18.3239H129.794V19.15H128.959V18.3239Z" fill="white"/>
<path d="M125.433 20.8065C125.381 20.7817 125.317 20.7542 125.243 20.7239C125.171 20.6908 125.09 20.6619 124.999 20.6371C124.908 20.6096 124.808 20.5876 124.698 20.5711C124.59 20.5518 124.475 20.5421 124.351 20.5421C124.183 20.5421 124.019 20.5504 123.859 20.5669C123.699 20.5834 123.558 20.6137 123.434 20.6578C123.31 20.7019 123.209 20.7611 123.132 20.8354C123.058 20.9098 123.021 21.0062 123.021 21.1246C123.021 21.2237 123.058 21.3091 123.132 21.3807C123.207 21.4495 123.303 21.5101 123.421 21.5624C123.543 21.612 123.679 21.6561 123.83 21.6946C123.982 21.7304 124.135 21.7648 124.289 21.7979C124.443 21.8309 124.592 21.864 124.735 21.897C124.878 21.9273 125.002 21.9617 125.107 22.0003C125.228 22.0471 125.341 22.1063 125.445 22.1779C125.553 22.2495 125.646 22.3335 125.726 22.4299C125.806 22.5235 125.868 22.6282 125.912 22.7438C125.959 22.8567 125.982 22.9793 125.982 23.1115C125.982 23.2904 125.948 23.4515 125.879 23.5947C125.81 23.7352 125.717 23.8605 125.598 23.9706C125.483 24.078 125.348 24.1717 125.193 24.2515C125.039 24.3286 124.875 24.3934 124.702 24.4457C124.531 24.4952 124.356 24.531 124.177 24.5531C124.001 24.5779 123.832 24.5903 123.669 24.5903C123.576 24.5903 123.459 24.5806 123.318 24.5613C123.18 24.5448 123.039 24.5214 122.893 24.4911C122.749 24.4581 122.613 24.4195 122.484 24.3755C122.354 24.3314 122.254 24.2846 122.182 24.235L122.455 23.6484C122.521 23.6815 122.608 23.7145 122.715 23.7476C122.822 23.7806 122.935 23.8109 123.054 23.8385C123.172 23.866 123.286 23.888 123.397 23.9046C123.509 23.9211 123.603 23.9293 123.677 23.9293C123.763 23.9293 123.858 23.9252 123.962 23.9169C124.07 23.9059 124.179 23.8894 124.289 23.8674C124.402 23.8426 124.51 23.8109 124.615 23.7724C124.723 23.7311 124.818 23.6801 124.9 23.6195C124.983 23.5589 125.049 23.4873 125.098 23.4047C125.151 23.3221 125.177 23.2257 125.177 23.1156C125.177 23.0082 125.141 22.9173 125.07 22.843C124.998 22.7686 124.903 22.7053 124.784 22.6529C124.666 22.6006 124.533 22.5566 124.384 22.5208C124.238 22.4822 124.088 22.4464 123.934 22.4134C123.779 22.3803 123.631 22.3473 123.487 22.3142C123.344 22.2784 123.219 22.2344 123.112 22.182C122.955 22.1077 122.824 22.0278 122.719 21.9425C122.617 21.8543 122.535 21.7621 122.471 21.6657C122.411 21.5693 122.368 21.4688 122.343 21.3642C122.318 21.2595 122.306 21.1521 122.306 21.042C122.306 20.8464 122.361 20.6771 122.471 20.5339C122.584 20.3907 122.734 20.2736 122.922 20.1828C123.109 20.0891 123.324 20.0203 123.566 19.9762C123.808 19.9294 124.062 19.906 124.326 19.906C124.469 19.906 124.608 19.9143 124.743 19.9308C124.881 19.9473 125.009 19.9693 125.127 19.9969C125.249 20.0244 125.356 20.0561 125.45 20.0919C125.543 20.1249 125.618 20.1594 125.673 20.1952L125.433 20.8065Z" fill="white"/>
<path d="M117.701 24.52H116.958V19.9762L117.701 19.8936V20.6908L117.953 20.2075C118.003 20.1744 118.06 20.14 118.127 20.1042C118.195 20.0684 118.278 20.0368 118.374 20.0092C118.471 19.9789 118.585 19.9541 118.717 19.9349C118.849 19.9156 119.005 19.9059 119.184 19.9059C119.402 19.9059 119.597 19.9417 119.771 20.0133C119.947 20.0822 120.094 20.1827 120.213 20.3149C120.334 20.4471 120.426 20.6068 120.489 20.7941C120.555 20.9813 120.588 21.1906 120.588 21.4219V24.52H119.845V21.4219C119.845 21.2732 119.82 21.1452 119.771 21.0378C119.724 20.9304 119.658 20.8422 119.572 20.7734C119.487 20.7018 119.388 20.6495 119.275 20.6164C119.162 20.5834 119.042 20.5669 118.915 20.5669C118.783 20.5669 118.655 20.5834 118.531 20.6164C118.41 20.6495 118.297 20.6922 118.193 20.7445C118.088 20.7941 117.993 20.8491 117.908 20.9097C117.825 20.9675 117.756 21.0226 117.701 21.0749V24.52Z" fill="white"/>
<path d="M113.65 22.8966C113.65 23.0398 113.658 23.172 113.675 23.2931C113.694 23.4143 113.724 23.5189 113.766 23.6071C113.807 23.6952 113.862 23.764 113.931 23.8136C114 23.8632 114.085 23.8879 114.187 23.8879C114.322 23.8879 114.453 23.8769 114.579 23.8549C114.709 23.8329 114.824 23.8081 114.926 23.7805C115.028 23.7503 115.112 23.7227 115.178 23.6979C115.247 23.6731 115.29 23.658 115.306 23.6525L115.467 24.2886C115.451 24.2969 115.407 24.3175 115.335 24.3506C115.264 24.3836 115.17 24.4181 115.054 24.4539C114.939 24.4869 114.804 24.5172 114.65 24.5447C114.495 24.575 114.327 24.5902 114.146 24.5902C113.876 24.5902 113.657 24.5461 113.489 24.458C113.324 24.3699 113.194 24.2487 113.1 24.0945C113.007 23.9375 112.944 23.753 112.91 23.541C112.88 23.3289 112.865 23.1004 112.865 22.8553V20.7197L113.03 20.4718L112.452 20.6371H111.622L111.539 19.9761H113.65V22.8966ZM112.84 18.3239H113.675V19.15H112.84V18.3239Z" fill="white"/>
<path d="M100.838 24.52V18.6544L100.755 17.9109L101.582 17.8282V21.6698L103.193 19.9762H104.138L102.569 21.6698L101.833 21.9301L102.569 22.1779L104.597 24.52H103.622L101.582 22.2192V24.52H100.838Z" fill="white"/>
<path d="M98.7528 20.8933C98.6454 20.7969 98.4967 20.7184 98.3067 20.6578C98.1167 20.5972 97.8757 20.5669 97.5838 20.5669C97.3525 20.5669 97.1446 20.611 96.9601 20.6991C96.7783 20.7845 96.6228 20.9015 96.4933 21.0502C96.3666 21.1989 96.2689 21.3724 96.2 21.5707C96.1339 21.7662 96.1009 21.9727 96.1009 22.1903C96.1009 22.4161 96.1326 22.6323 96.1959 22.8388C96.262 23.0426 96.3584 23.223 96.4851 23.3799C96.6145 23.5369 96.7742 23.6622 96.9642 23.7558C97.1542 23.8467 97.3759 23.8922 97.6293 23.8922C97.7725 23.8922 97.9102 23.8756 98.0423 23.8426C98.1745 23.8095 98.2943 23.771 98.4017 23.7269C98.5091 23.6801 98.6 23.6347 98.6743 23.5906C98.7515 23.5438 98.8065 23.5066 98.8396 23.4791L99.137 24.0615C99.0957 24.0973 99.0337 24.1455 98.9511 24.2061C98.8685 24.2639 98.7625 24.3218 98.633 24.3796C98.5064 24.4374 98.3549 24.487 98.1787 24.5283C98.0052 24.5696 97.8028 24.5903 97.5714 24.5903C97.2272 24.5903 96.9147 24.5228 96.6338 24.3878C96.3556 24.2502 96.1174 24.0684 95.9192 23.8426C95.7209 23.614 95.5667 23.3524 95.4565 23.0578C95.3491 22.7631 95.2954 22.456 95.2954 22.1366C95.2954 21.8502 95.3477 21.5734 95.4524 21.3063C95.5598 21.0364 95.7126 20.7982 95.9109 20.5917C96.1092 20.3852 96.3501 20.2199 96.6338 20.096C96.9174 19.9693 97.2369 19.906 97.5921 19.906C97.9281 19.906 98.2296 19.9459 98.4967 20.0258C98.7666 20.1029 98.9883 20.2365 99.1618 20.4265L98.7528 20.8933Z" fill="white"/>
<path d="M91.9005 24.5903C91.5948 24.5903 91.3139 24.531 91.0578 24.4126C90.8045 24.2915 90.5855 24.1262 90.401 23.9169C90.2165 23.7049 90.0719 23.4557 89.9673 23.1693C89.8654 22.8829 89.8145 22.5717 89.8145 22.2357C89.8145 21.9025 89.864 21.5941 89.9632 21.3105C90.0623 21.0241 90.2027 20.7776 90.3845 20.5711C90.5662 20.3618 90.7852 20.1993 91.0413 20.0836C91.3001 19.9652 91.5865 19.906 91.9005 19.906C92.2061 19.906 92.4843 19.9652 92.7349 20.0836C92.9855 20.1993 93.2003 20.3618 93.3793 20.5711C93.561 20.7776 93.7015 21.0241 93.8006 21.3105C93.8997 21.5941 93.9493 21.9025 93.9493 22.2357C93.9493 22.5717 93.9011 22.8829 93.8047 23.1693C93.7111 23.4557 93.5748 23.7049 93.3958 23.9169C93.2196 24.1262 93.0048 24.2915 92.7514 24.4126C92.498 24.531 92.2144 24.5903 91.9005 24.5903ZM93.1645 22.3473C93.1645 22.1242 93.1411 21.9053 93.0943 21.6905C93.0474 21.4757 92.9731 21.2843 92.8712 21.1163C92.7693 20.9456 92.6371 20.8079 92.4746 20.7032C92.3122 20.5986 92.1153 20.5463 91.8839 20.5463C91.6636 20.5463 91.4723 20.5917 91.3098 20.6826C91.1473 20.7735 91.0137 20.8946 90.9091 21.0461C90.8045 21.1975 90.726 21.3697 90.6736 21.5624C90.6241 21.7552 90.5993 21.9535 90.5993 22.1573C90.5993 22.3803 90.6241 22.5992 90.6736 22.814C90.726 23.0288 90.8045 23.2202 90.9091 23.3882C91.0165 23.5562 91.1528 23.6925 91.318 23.7972C91.486 23.899 91.6857 23.95 91.917 23.95C92.1345 23.95 92.3218 23.9046 92.4788 23.8137C92.6385 23.7228 92.7679 23.603 92.8671 23.4543C92.969 23.3028 93.0433 23.1321 93.0901 22.9421C93.1397 22.7493 93.1645 22.551 93.1645 22.3473Z" fill="white"/>
<path d="M85.9534 18.6543L86.1186 18.4065L85.5403 18.5717H84.7101L84.6274 17.9108H86.6969V22.9668C86.6969 23.1485 86.7107 23.3014 86.7382 23.4253C86.7658 23.5465 86.803 23.6456 86.8498 23.7227C86.8966 23.7971 86.953 23.8508 87.0191 23.8838C87.0852 23.9141 87.1568 23.9292 87.2339 23.9292C87.3441 23.9292 87.4446 23.921 87.5355 23.9045C87.6291 23.8879 87.7117 23.8673 87.7833 23.8425C87.8577 23.8177 87.921 23.7915 87.9733 23.764C88.0284 23.7365 88.0725 23.7131 88.1055 23.6938L88.3905 24.1936C88.3685 24.2129 88.3231 24.2446 88.2542 24.2886C88.1854 24.3327 88.0973 24.3767 87.9899 24.4208C87.8852 24.4649 87.7613 24.5034 87.6181 24.5365C87.4776 24.5723 87.3221 24.5902 87.1513 24.5902C86.9035 24.5902 86.7011 24.5447 86.5441 24.4538C86.3871 24.363 86.2646 24.239 86.1765 24.0821C86.0911 23.9251 86.0319 23.7434 85.9988 23.5368C85.9686 23.3275 85.9534 23.1045 85.9534 22.8676V18.6543Z" fill="white"/>
<path d="M80.0887 24.52H79.3452V19.9762L80.0887 19.8936V20.6908L80.3407 20.2075C80.3903 20.1744 80.4481 20.14 80.5142 20.1042C80.5831 20.0684 80.6657 20.0368 80.7621 20.0092C80.8584 19.9789 80.9727 19.9541 81.1049 19.9349C81.2371 19.9156 81.3927 19.9059 81.5717 19.9059C81.7892 19.9059 81.9848 19.9417 82.1582 20.0133C82.3345 20.0822 82.4818 20.1827 82.6002 20.3149C82.7214 20.4471 82.8137 20.6068 82.877 20.7941C82.9431 20.9813 82.9761 21.1906 82.9761 21.4219V24.52H82.2326V21.4219C82.2326 21.2732 82.2078 21.1452 82.1582 21.0378C82.1114 20.9304 82.0453 20.8422 81.96 20.7734C81.8746 20.7018 81.7755 20.6495 81.6626 20.6164C81.5496 20.5834 81.4299 20.5669 81.3032 20.5669C81.171 20.5669 81.0429 20.5834 80.919 20.6164C80.7979 20.6495 80.6849 20.6922 80.5803 20.7445C80.4757 20.7941 80.3807 20.8491 80.2953 20.9097C80.2127 20.9675 80.1438 21.0226 80.0887 21.0749V24.52Z" fill="white"/>
<path d="M76.9463 19.9762L77.6898 19.8936V24.52H76.9463V23.7764L76.6943 24.2184C76.6695 24.2487 76.6296 24.2845 76.5745 24.3258C76.5195 24.3671 76.4506 24.4084 76.368 24.4497C76.2854 24.4883 76.1904 24.5213 76.083 24.5489C75.9756 24.5764 75.8558 24.5902 75.7236 24.5902C75.3904 24.5902 75.1109 24.5392 74.8851 24.4374C74.662 24.3327 74.483 24.195 74.3481 24.0243C74.2131 23.8535 74.1167 23.6566 74.0589 23.4336C74.0011 23.2105 73.9722 22.9806 73.9722 22.7438V19.9762L74.7157 19.8936V22.7438C74.7157 22.9228 74.7336 23.0839 74.7694 23.2271C74.8052 23.3703 74.8658 23.4928 74.9512 23.5947C75.0393 23.6966 75.1549 23.7751 75.2981 23.8301C75.4441 23.8825 75.6245 23.9086 75.8393 23.9086C75.999 23.9086 76.1408 23.8866 76.2647 23.8425C76.3886 23.7957 76.496 23.7406 76.5869 23.6773C76.6805 23.6112 76.7563 23.5424 76.8141 23.4708C76.8747 23.3992 76.9188 23.3358 76.9463 23.2808V19.9762Z" fill="white"/>
<circle cx="54.2323" cy="15.1682" r="4.92227" fill="white"/>
<circle cx="14.6352" cy="15.1682" r="4.92227" fill="white"/>
<path fill-rule="evenodd" clip-rule="evenodd" d="M23.0309 26.7584C20.6732 28.4684 17.7734 29.4767 14.6384 29.4767C6.73636 29.4767 0.330078 23.0705 0.330078 15.1682C0.330078 7.26591 6.73636 0.859741 14.6384 0.859741C17.4645 0.859741 20.0991 1.6791 22.3181 3.09305C23.5275 3.55916 29.9135 5.93754 34.3275 5.93801C38.6888 5.93848 44.8811 3.80438 46.1794 3.3391C48.4732 1.77456 51.246 0.859741 54.2319 0.859741C62.1345 0.859741 68.5408 7.26591 68.5408 15.1682C68.5408 23.0705 62.1345 29.4767 54.2319 29.4767C51.3218 29.4767 48.6142 28.6077 46.3548 27.115C45.6081 26.782 38.9667 23.8801 34.3275 23.8807C30.4651 23.8812 25.1408 25.8935 23.0309 26.7584ZM24.011 15.1682C24.011 20.3462 19.8133 24.5439 14.6353 24.5439C9.4572 24.5439 5.25954 20.3462 5.25954 15.1682C5.25954 9.9901 9.4572 5.79244 14.6353 5.79244C19.8133 5.79244 24.011 9.9901 24.011 15.1682ZM54.2319 24.5439C59.41 24.5439 63.6076 20.3462 63.6076 15.1682C63.6076 9.9901 59.41 5.79244 54.2319 5.79244C49.0538 5.79244 44.8562 9.9901 44.8562 15.1682C44.8562 20.3462 49.0538 24.5439 54.2319 24.5439Z" fill="white"/>
<path d="M70.5146 3.86919C70.5146 3.41005 70.8869 3.03784 71.346 3.03784V27.2637C70.8869 27.2637 70.5146 26.8915 70.5146 26.4324V3.86919Z" fill="white"/>
</svg>
