<svg width="176" height="40" viewBox="0 0 176 40" fill="none" xmlns="http://www.w3.org/2000/svg">
<path d="M151.475 15.2326H153.743V17.2484C154.415 16.4173 155.127 15.8205 155.878 15.458C156.63 15.0956 157.465 14.9143 158.385 14.9143C160.4 14.9143 161.762 15.6172 162.469 17.023C162.858 17.7922 163.053 18.8929 163.053 20.3252V29.4362H160.626V20.4843C160.626 19.6179 160.498 18.9194 160.241 18.3889C159.817 17.5048 159.048 17.0627 157.934 17.0627C157.368 17.0627 156.904 17.1202 156.541 17.2352C155.887 17.4297 155.312 17.8187 154.817 18.4022C154.419 18.8708 154.158 19.3571 154.035 19.861C153.92 20.3561 153.862 21.0679 153.862 21.9962V29.4362H151.475V15.2326Z" fill="white"/>
<path d="M145.428 15.2989H147.855V29.4362H145.428V15.2989ZM145.428 9.95435H147.855V12.6598H145.428V9.95435Z" fill="white"/>
<path d="M132.139 25.6564C132.139 26.346 132.391 26.8898 132.895 27.2876C133.399 27.6855 133.995 27.8844 134.685 27.8844C135.525 27.8844 136.338 27.6899 137.125 27.3009C138.451 26.6555 139.115 25.599 139.115 24.1313V22.2083C138.823 22.394 138.447 22.5487 137.987 22.6725C137.528 22.7963 137.077 22.8847 136.635 22.9377L135.189 23.1234C134.323 23.2383 133.673 23.4196 133.24 23.6671C132.506 24.0827 132.139 24.7458 132.139 25.6564ZM137.921 20.8291C138.469 20.7583 138.836 20.5285 139.022 20.1394C139.128 19.9272 139.181 19.6222 139.181 19.2244C139.181 18.411 138.889 17.823 138.306 17.4605C137.731 17.0892 136.904 16.9035 135.826 16.9035C134.579 16.9035 133.695 17.2395 133.173 17.9114C132.881 18.2828 132.691 18.8353 132.603 19.5692H130.375C130.419 17.8186 130.985 16.6029 132.072 15.9221C133.169 15.2325 134.438 14.8877 135.879 14.8877C137.55 14.8877 138.907 15.206 139.95 15.8426C140.984 16.4791 141.502 17.4694 141.502 18.8132V26.9959C141.502 27.2434 141.55 27.4424 141.648 27.5927C141.754 27.743 141.97 27.8181 142.297 27.8181C142.404 27.8181 142.523 27.8137 142.656 27.8049C142.788 27.7872 142.93 27.7651 143.08 27.7386V29.5024C142.709 29.6085 142.426 29.6748 142.231 29.7013C142.037 29.7278 141.771 29.7411 141.435 29.7411C140.613 29.7411 140.016 29.4493 139.645 28.8658C139.451 28.5564 139.313 28.1187 139.234 27.5529C138.748 28.1895 138.049 28.742 137.139 29.2106C136.228 29.6792 135.224 29.9135 134.128 29.9135C132.811 29.9135 131.732 29.5157 130.892 28.7199C130.061 27.9154 129.646 26.9119 129.646 25.7095C129.646 24.3921 130.057 23.3709 130.879 22.646C131.701 21.921 132.78 21.4745 134.115 21.3065L137.921 20.8291Z" fill="white"/>
<path d="M115.19 9.88794H117.577V17.1555C118.143 16.4394 118.651 15.9354 119.102 15.6436C119.871 15.1397 120.831 14.8877 121.98 14.8877C124.04 14.8877 125.437 15.6083 126.171 17.0494C126.569 17.8363 126.768 18.9282 126.768 20.3251V29.4361H124.314V20.4843C124.314 19.441 124.182 18.6762 123.916 18.1899C123.483 17.4119 122.67 17.0229 121.476 17.0229C120.486 17.0229 119.588 17.3633 118.784 18.0441C117.979 18.7248 117.577 20.0112 117.577 21.9033V29.4361H115.19V9.88794Z" fill="white"/>
<path d="M107.087 14.8214C108.688 14.8214 109.987 15.2104 110.986 15.9885C111.994 16.7665 112.6 18.106 112.803 20.0068H110.482C110.341 19.1316 110.018 18.4066 109.514 17.8319C109.01 17.2484 108.201 16.9566 107.087 16.9566C105.567 16.9566 104.479 17.6993 103.825 19.1846C103.401 20.1483 103.188 21.3375 103.188 22.7521C103.188 24.1755 103.489 25.3735 104.09 26.3461C104.691 27.3186 105.637 27.8049 106.928 27.8049C107.918 27.8049 108.701 27.5043 109.276 26.9031C109.859 26.293 110.261 25.4619 110.482 24.4098H112.803C112.538 26.293 111.875 27.6723 110.814 28.5476C109.753 29.414 108.396 29.8472 106.743 29.8472C104.886 29.8472 103.405 29.1709 102.3 27.8182C101.195 26.4566 100.642 24.7591 100.642 22.7256C100.642 20.2323 101.248 18.2916 102.459 16.9035C103.67 15.5155 105.213 14.8214 107.087 14.8214Z" fill="white"/>
<path d="M86.4912 15.2326H88.759V17.2484C89.4309 16.4173 90.1427 15.8205 90.8942 15.458C91.6457 15.0956 92.4812 14.9143 93.4007 14.9143C95.4165 14.9143 96.7781 15.6172 97.4854 17.023C97.8744 17.7922 98.0689 18.8929 98.0689 20.3252V29.4362H95.642V20.4843C95.642 19.6179 95.5138 18.9194 95.2574 18.3889C94.833 17.5048 94.0638 17.0627 92.9498 17.0627C92.3839 17.0627 91.9198 17.1202 91.5573 17.2352C90.903 17.4297 90.3283 17.8187 89.8332 18.4022C89.4354 18.8708 89.1746 19.3571 89.0508 19.861C88.9358 20.3561 88.8784 21.0679 88.8784 21.9962V29.4362H86.4912V15.2326Z" fill="white"/>
<path d="M77.0088 27.8977C78.5914 27.8977 79.6744 27.3009 80.2579 26.1074C80.8503 24.9049 81.1465 23.5699 81.1465 22.1022C81.1465 20.776 80.9343 19.6974 80.5099 18.8663C79.838 17.5578 78.6798 16.9035 77.0353 16.9035C75.5765 16.9035 74.5155 17.4605 73.8524 18.5746C73.1893 19.6886 72.8578 21.0324 72.8578 22.6062C72.8578 24.1181 73.1893 25.3779 73.8524 26.3859C74.5155 27.3938 75.5676 27.8977 77.0088 27.8977ZM77.1016 14.8214C78.9317 14.8214 80.479 15.4315 81.7433 16.6516C83.0076 17.8717 83.6397 19.6665 83.6397 22.0359C83.6397 24.3258 83.0827 26.2179 81.9687 27.7121C80.8547 29.2062 79.1263 29.9533 76.7833 29.9533C74.8294 29.9533 73.2777 29.2946 72.1284 27.9773C70.979 26.6511 70.4043 24.874 70.4043 22.646C70.4043 20.2588 71.0099 18.3579 72.2212 16.9433C73.4324 15.5287 75.0593 14.8214 77.1016 14.8214Z" fill="white"/>
<path d="M57.7393 9.95435H60.0336V21.2668L66.1606 15.2326H69.2109L63.7735 20.5507L69.5159 29.4362H66.4656L62.0361 22.2747L60.0336 24.1049V29.4362H57.7393V9.95435Z" fill="white"/>
<path d="M48.31 27.8977C49.8926 27.8977 50.9757 27.3009 51.5592 26.1074C52.1516 24.9049 52.4478 23.5699 52.4478 22.1022C52.4478 20.776 52.2356 19.6974 51.8112 18.8663C51.1393 17.5578 49.981 16.9035 48.3366 16.9035C46.8777 16.9035 45.8168 17.4605 45.1537 18.5746C44.4906 19.6886 44.159 21.0324 44.159 22.6062C44.159 24.1181 44.4906 25.3779 45.1537 26.3859C45.8168 27.3938 46.8689 27.8977 48.31 27.8977ZM48.4029 14.8214C50.233 14.8214 51.7802 15.4315 53.0446 16.6516C54.3089 17.8717 54.941 19.6665 54.941 22.0359C54.941 24.3258 54.384 26.2179 53.27 27.7121C52.156 29.2062 50.4275 29.9533 48.0846 29.9533C46.1306 29.9533 44.579 29.2946 43.4296 27.9773C42.2803 26.6511 41.7056 24.874 41.7056 22.646C41.7056 20.2588 42.3112 18.3579 43.5225 16.9433C44.7337 15.5287 46.3605 14.8214 48.4029 14.8214Z" fill="white"/>
<path d="M33.1914 27.8977C34.774 27.8977 35.857 27.3009 36.4406 26.1074C37.0329 24.9049 37.3291 23.5699 37.3291 22.1022C37.3291 20.776 37.1169 19.6974 36.6925 18.8663C36.0206 17.5578 34.8624 16.9035 33.2179 16.9035C31.7591 16.9035 30.6981 17.4605 30.035 18.5746C29.3719 19.6886 29.0404 21.0324 29.0404 22.6062C29.0404 24.1181 29.3719 25.3779 30.035 26.3859C30.6981 27.3938 31.7502 27.8977 33.1914 27.8977ZM33.2842 14.8214C35.1144 14.8214 36.6616 15.4315 37.9259 16.6516C39.1902 17.8717 39.8224 19.6665 39.8224 22.0359C39.8224 24.3258 39.2654 26.2179 38.1514 27.7121C37.0374 29.2062 35.3089 29.9533 32.9659 29.9533C31.012 29.9533 29.4603 29.2946 28.311 27.9773C27.1616 26.6511 26.5869 24.874 26.5869 22.646C26.5869 20.2588 27.1925 18.3579 28.4038 16.9433C29.6151 15.5287 31.2419 14.8214 33.2842 14.8214Z" fill="white"/>
<path d="M12.7544 9.95435H15.3935V27.1153H25.2604V29.4362H12.7544V9.95435Z" fill="white"/>
<path fill-rule="evenodd" clip-rule="evenodd" d="M173.438 2.76395H2.78885V37.5064H173.438V2.76395ZM0.706055 0.681152V39.5892H175.521V0.681152H0.706055Z" fill="white"/>
</svg>
