<svg width="12" height="10" viewBox="0 0 12 10" fill="none" xmlns="http://www.w3.org/2000/svg">
<path fill-rule="evenodd" clip-rule="evenodd" d="M6.82364 0.708755C6.91445 0.633008 7.01929 0.575899 7.13218 0.540692C7.24507 0.505485 7.36379 0.49287 7.48156 0.503569C7.59933 0.514267 7.71383 0.54807 7.81853 0.603043C7.92323 0.658017 8.01607 0.733085 8.09174 0.823956L11.0914 4.42396C11.2375 4.60801 11.3057 4.84188 11.2817 5.07559C11.2576 5.30931 11.1431 5.52435 10.9626 5.67476C10.7821 5.82517 10.5499 5.89904 10.3157 5.88058C10.0815 5.86212 9.86374 5.75279 9.70904 5.57596L6.70844 1.97596C6.55574 1.79261 6.4821 1.55613 6.5037 1.31851C6.5253 1.08088 6.64038 0.861559 6.82364 0.708755Z" fill="#D97D24"/>
<path fill-rule="evenodd" clip-rule="evenodd" d="M6.82364 9.29118C6.64038 9.13838 6.5253 8.91906 6.5037 8.68143C6.4821 8.44381 6.55574 8.20733 6.70844 8.02398L9.70904 4.42399C9.86374 4.24715 10.0815 4.13782 10.3157 4.11936C10.5499 4.1009 10.7821 4.17477 10.9626 4.32518C11.1431 4.47559 11.2576 4.69063 11.2817 4.92435C11.3057 5.15806 11.2375 5.39193 11.0914 5.57599L8.09174 9.17599C8.01607 9.26686 7.92323 9.34192 7.81853 9.3969C7.71383 9.45187 7.59933 9.48567 7.48156 9.49637C7.36379 9.50707 7.24507 9.49445 7.13218 9.45925C7.01929 9.42404 6.91445 9.36693 6.82364 9.29118Z" fill="#D97D24"/>
<path fill-rule="evenodd" clip-rule="evenodd" d="M9.5 4.99998C9.5 5.23867 9.40518 5.46759 9.2364 5.63637C9.06761 5.80515 8.83869 5.89997 8.6 5.89997H1.4C1.16131 5.89997 0.932387 5.80515 0.763604 5.63637C0.594821 5.46759 0.5 5.23867 0.5 4.99998C0.5 4.76128 0.594821 4.53236 0.763604 4.36358C0.932387 4.1948 1.16131 4.09998 1.4 4.09998H8.6C8.83869 4.09998 9.06761 4.1948 9.2364 4.36358C9.40518 4.53236 9.5 4.76128 9.5 4.99998Z" fill="#D97D24"/>
</svg>
