<svg width="24" height="24" viewBox="0 0 24 24" fill="none" xmlns="http://www.w3.org/2000/svg">
<path d="M2.16992 7.29595V16.7039C2.16992 17.3087 2.48672 17.8559 3.01472 18.1631L11.1651 22.8671C11.6835 23.1647 12.3267 23.1647 12.8451 22.8671L20.9955 18.1631C21.5139 17.8655 21.8403 17.3087 21.8403 16.7039V7.29595C21.8403 6.69115 21.5235 6.14395 20.9955 5.83675L12.8451 1.13275C12.3267 0.835146 11.6835 0.835146 11.1651 1.13275L3.01472 5.83675C2.49632 6.13435 2.17952 6.69115 2.17952 7.29595H2.16992Z" fill="#213147"/>
<path d="M13.776 13.8241L12.6144 17.0113C12.5856 17.0977 12.5856 17.1937 12.6144 17.2897L14.6112 22.7713L16.9248 21.4369L14.1504 13.8241C14.0832 13.6513 13.8432 13.6513 13.776 13.8241Z" fill="#12AAFF"/>
<path d="M16.1089 8.46725C16.0417 8.29445 15.8017 8.29445 15.7345 8.46725L14.5729 11.6544C14.5441 11.7408 14.5441 11.8368 14.5729 11.9328L17.8465 20.9088L20.1601 19.5744L16.1089 8.47685V8.46725Z" fill="#12AAFF"/>
<path d="M12.0001 1.488C12.0577 1.488 12.1153 1.5072 12.1633 1.536L20.9761 6.624C21.0817 6.6816 21.1393 6.7968 21.1393 6.912V17.088C21.1393 17.2032 21.0721 17.3184 20.9761 17.376L12.1633 22.464C12.1153 22.4928 12.0577 22.512 12.0001 22.512C11.9425 22.512 11.8849 22.4928 11.8369 22.464L3.02408 17.376C2.91848 17.3184 2.86088 17.2032 2.86088 17.088V6.9024C2.86088 6.7872 2.92808 6.672 3.02408 6.6144L11.8369 1.5264C11.8849 1.4976 11.9425 1.4784 12.0001 1.4784V1.488ZM12.0001 0C11.6833 0 11.3761 0.0768 11.0881 0.24L2.27528 5.328C1.70888 5.6544 1.36328 6.2496 1.36328 6.9024V17.0784C1.36328 17.7312 1.70888 18.3264 2.27528 18.6528L11.0881 23.7408C11.3665 23.904 11.6833 23.9808 12.0001 23.9808C12.3169 23.9808 12.6241 23.904 12.9121 23.7408L21.7249 18.6528C22.2913 18.3264 22.6369 17.7312 22.6369 17.0784V6.9024C22.6369 6.2496 22.2913 5.6544 21.7249 5.328L12.9025 0.24C12.6241 0.0768 12.3073 0 11.9905 0H12.0001Z" fill="#9DCCED"/>
<path d="M6.16309 20.9184L6.97909 18.6912L8.61109 20.0448L7.08469 21.4464L6.16309 20.9184Z" fill="#213147"/>
<path d="M11.2512 6.18245H9.01441C8.85121 6.18245 8.69761 6.28805 8.64001 6.44165L3.84961 19.5744L6.16321 20.9088L11.4432 6.44165C11.4912 6.30725 11.3952 6.17285 11.2608 6.17285L11.2512 6.18245Z" fill="white"/>
<path d="M15.1682 6.18245H12.9314C12.7682 6.18245 12.6146 6.28805 12.557 6.44165L7.08496 21.4369L9.39856 22.7713L15.3506 6.44165C15.3986 6.30725 15.3026 6.17285 15.1682 6.17285V6.18245Z" fill="white"/>
</svg>
