<svg width="188" height="32" viewBox="0 0 188 32" fill="none" xmlns="http://www.w3.org/2000/svg">
<path fill-rule="evenodd" clip-rule="evenodd" d="M15.0971 8C13.6057 8.00003 12.5841 8 8.96774 8C4.25881 8.38647 0 12.0716 0 17.8316C0 21.2544 2.24926 27.8041 13.2258 27.8041C14.7247 28.855 15.3698 28.9804 16.295 28.6689C16.3788 27.7293 15.7705 27.1304 14.433 26.0348C14.4774 24.7159 14.4531 24.0023 13.8781 23.0095C13.0413 23.1301 12.3773 23.9805 12.0877 25.3684C10.4738 25.4931 8.74283 23.9285 8.74283 22.3066V21.2544C8.94271 20.5835 9.18886 20.3267 9.92824 20.1356H14.491C15.2656 19.9678 15.4906 19.6654 15.6304 18.8659H9.99814C9.54583 18.7961 9.31439 18.6367 8.93605 18.1421L9.07975 17.9922H17.4776C17.778 17.8878 17.8858 17.7805 17.9792 17.5073C17.9792 17.5073 18.2273 12.9189 17.9792 11.0112C17.7311 9.1035 16.8178 8.36148 15.0971 8ZM8.04251 14.636C8.55269 14.636 8.96626 14.2225 8.96626 13.7123C8.96626 13.2021 8.55269 12.7885 8.04251 12.7885C7.53234 12.7885 7.11876 13.2021 7.11876 13.7123C7.11876 14.2225 7.53234 14.636 8.04251 14.636Z" fill="white"/>
<path d="M30.7314 26.26C30.038 26.26 29.3794 26.1733 28.7554 26C28.1487 25.8093 27.5854 25.5493 27.0654 25.22C26.5454 24.8733 26.0947 24.466 25.7134 23.998L27.2214 22.49C27.672 23.0447 28.192 23.4607 28.7814 23.738C29.3707 23.998 30.0294 24.128 30.7574 24.128C31.4854 24.128 32.0487 24.0067 32.4474 23.764C32.846 23.504 33.0454 23.1487 33.0454 22.698C33.0454 22.2473 32.8807 21.9007 32.5514 21.658C32.2394 21.398 31.832 21.19 31.3294 21.034C30.8267 20.8607 30.2894 20.696 29.7174 20.54C29.1627 20.3667 28.634 20.15 28.1314 19.89C27.6287 19.63 27.2127 19.2747 26.8834 18.824C26.5714 18.3733 26.4154 17.7753 26.4154 17.03C26.4154 16.2847 26.5974 15.6433 26.9614 15.106C27.3254 14.5513 27.828 14.1267 28.4694 13.832C29.128 13.5373 29.9167 13.39 30.8354 13.39C31.806 13.39 32.664 13.5633 33.4094 13.91C34.172 14.2393 34.796 14.742 35.2814 15.418L33.7734 16.926C33.4267 16.4753 32.9934 16.1287 32.4734 15.886C31.9707 15.6433 31.3987 15.522 30.7574 15.522C30.0814 15.522 29.5614 15.6433 29.1974 15.886C28.8507 16.1113 28.6774 16.432 28.6774 16.848C28.6774 17.264 28.8334 17.5847 29.1454 17.81C29.4574 18.0353 29.8647 18.226 30.3674 18.382C30.8874 18.538 31.4247 18.7027 31.9794 18.876C32.534 19.032 33.0627 19.2487 33.5654 19.526C34.068 19.8033 34.4754 20.176 34.7874 20.644C35.1167 21.112 35.2814 21.7273 35.2814 22.49C35.2814 23.6513 34.8654 24.57 34.0334 25.246C33.2187 25.922 32.118 26.26 30.7314 26.26ZM37.9011 26V13.65H40.2411V26H37.9011ZM46.2471 26V18.538C46.2471 17.6193 45.9611 16.9 45.3891 16.38C44.8344 15.8427 44.1324 15.574 43.2831 15.574C42.7111 15.574 42.1997 15.6953 41.7491 15.938C41.2984 16.1807 40.9344 16.5187 40.6571 16.952C40.3797 17.3853 40.2411 17.9053 40.2411 18.512L39.2791 18.044C39.2791 17.108 39.4784 16.2933 39.8771 15.6C40.2931 14.9067 40.8564 14.3693 41.5671 13.988C42.2777 13.5893 43.0751 13.39 43.9591 13.39C44.8257 13.39 45.6057 13.5807 46.2991 13.962C47.0097 14.3433 47.5644 14.8807 47.9631 15.574C48.3791 16.2673 48.5871 17.0907 48.5871 18.044V26H46.2471ZM54.5931 26V18.538C54.5931 17.6193 54.3071 16.9 53.7351 16.38C53.1804 15.8427 52.4871 15.574 51.6551 15.574C51.0831 15.574 50.5631 15.6953 50.0951 15.938C49.6444 16.1807 49.2804 16.5187 49.0031 16.952C48.7257 17.3853 48.5871 17.9053 48.5871 18.512L47.2611 18.044C47.3131 17.0907 47.5644 16.276 48.0151 15.6C48.4831 14.9067 49.0811 14.3693 49.8091 13.988C50.5371 13.5893 51.3344 13.39 52.2011 13.39C53.1024 13.39 53.9084 13.5807 54.6191 13.962C55.3297 14.3433 55.8931 14.8807 56.3091 15.574C56.7424 16.2673 56.9591 17.0993 56.9591 18.07V26H54.5931ZM65.3953 26.26C64.2686 26.26 63.2459 25.9827 62.3273 25.428C61.4086 24.856 60.6806 24.0847 60.1433 23.114C59.6233 22.1433 59.3633 21.0513 59.3633 19.838C59.3633 18.6247 59.6233 17.5327 60.1433 16.562C60.6806 15.5913 61.3999 14.82 62.3013 14.248C63.2199 13.676 64.2513 13.39 65.3953 13.39C66.3313 13.39 67.1633 13.5893 67.8913 13.988C68.6366 14.3693 69.2346 14.9067 69.6853 15.6C70.1359 16.276 70.3873 17.0647 70.4393 17.966V21.684C70.3873 22.568 70.1359 23.3567 69.6853 24.05C69.2519 24.7433 68.6626 25.2893 67.9173 25.688C67.1893 26.0693 66.3486 26.26 65.3953 26.26ZM65.7853 24.05C66.9466 24.05 67.8826 23.66 68.5933 22.88C69.3039 22.0827 69.6593 21.0687 69.6593 19.838C69.6593 18.9887 69.4946 18.252 69.1653 17.628C68.8533 16.9867 68.4026 16.4927 67.8133 16.146C67.2239 15.782 66.5393 15.6 65.7593 15.6C64.9793 15.6 64.2859 15.782 63.6793 16.146C63.0899 16.51 62.6219 17.0127 62.2753 17.654C61.9459 18.278 61.7813 18.9973 61.7813 19.812C61.7813 20.644 61.9459 21.3807 62.2753 22.022C62.6219 22.646 63.0986 23.14 63.7053 23.504C64.3119 23.868 65.0053 24.05 65.7853 24.05ZM69.5033 26V22.672L69.9453 19.656L69.5033 16.666V13.65H71.8693V26H69.5033ZM75.2761 26V13.65H77.6161V26H75.2761ZM77.6161 18.954L76.7321 18.564C76.7321 16.9867 77.0961 15.73 77.8241 14.794C78.5521 13.858 79.6007 13.39 80.9701 13.39C81.5941 13.39 82.1574 13.5027 82.6601 13.728C83.1627 13.936 83.6307 14.2913 84.0641 14.794L82.5301 16.38C82.2701 16.1027 81.9841 15.9033 81.6721 15.782C81.3601 15.6607 80.9961 15.6 80.5801 15.6C79.7134 15.6 79.0027 15.8773 78.4481 16.432C77.8934 16.9867 77.6161 17.8273 77.6161 18.954ZM87.5588 26V8.476H89.8988V26H87.5588ZM84.5168 15.782V13.65H92.9408V15.782H84.5168Z" fill="white"/>
<path d="M99.3414 26L94.4534 13.65H96.8974L100.433 23.27H99.6534L103.163 13.65H104.515L108.025 23.27H107.245L110.781 13.65H113.225L108.363 26H106.985L103.423 16.666H104.281L100.693 26H99.3414ZM124.041 26V18.798C124.041 17.862 123.747 17.0907 123.157 16.484C122.568 15.8773 121.805 15.574 120.869 15.574C120.245 15.574 119.691 15.7127 119.205 15.99C118.72 16.2673 118.339 16.6487 118.061 17.134C117.784 17.6193 117.645 18.174 117.645 18.798L116.683 18.252C116.683 17.316 116.891 16.484 117.307 15.756C117.723 15.028 118.304 14.456 119.049 14.04C119.795 13.6067 120.635 13.39 121.571 13.39C122.507 13.39 123.331 13.598 124.041 14.014C124.769 14.43 125.341 15.0107 125.757 15.756C126.173 16.5013 126.381 17.3593 126.381 18.33V26H124.041ZM115.305 26V7.436H117.645V26H115.305ZM134.802 26.26C133.675 26.26 132.652 25.9827 131.734 25.428C130.815 24.856 130.087 24.0847 129.55 23.114C129.03 22.1433 128.77 21.0513 128.77 19.838C128.77 18.6247 129.03 17.5327 129.55 16.562C130.087 15.5913 130.806 14.82 131.708 14.248C132.626 13.676 133.658 13.39 134.802 13.39C135.738 13.39 136.57 13.5893 137.298 13.988C138.043 14.3693 138.641 14.9067 139.092 15.6C139.542 16.276 139.794 17.0647 139.846 17.966V21.684C139.794 22.568 139.542 23.3567 139.092 24.05C138.658 24.7433 138.069 25.2893 137.324 25.688C136.596 26.0693 135.755 26.26 134.802 26.26ZM135.192 24.05C136.353 24.05 137.289 23.66 138 22.88C138.71 22.0827 139.066 21.0687 139.066 19.838C139.066 18.9887 138.901 18.252 138.572 17.628C138.26 16.9867 137.809 16.4927 137.22 16.146C136.63 15.782 135.946 15.6 135.166 15.6C134.386 15.6 133.692 15.782 133.086 16.146C132.496 16.51 132.028 17.0127 131.682 17.654C131.352 18.278 131.188 18.9973 131.188 19.812C131.188 20.644 131.352 21.3807 131.682 22.022C132.028 22.646 132.505 23.14 133.112 23.504C133.718 23.868 134.412 24.05 135.192 24.05ZM138.91 26V22.672L139.352 19.656L138.91 16.666V13.65H141.276V26H138.91ZM144.682 26V7.436H147.022V26H144.682ZM156.166 26.26C154.935 26.26 153.826 25.9827 152.838 25.428C151.85 24.856 151.07 24.0847 150.498 23.114C149.926 22.1433 149.64 21.0427 149.64 19.812C149.64 18.5987 149.917 17.5067 150.472 16.536C151.044 15.5653 151.807 14.8027 152.76 14.248C153.731 13.676 154.814 13.39 156.01 13.39C157.154 13.39 158.159 13.65 159.026 14.17C159.91 14.69 160.595 15.4093 161.08 16.328C161.583 17.2467 161.834 18.2867 161.834 19.448C161.834 19.6213 161.825 19.812 161.808 20.02C161.791 20.2107 161.756 20.436 161.704 20.696H151.278V18.746H160.456L159.598 19.5C159.598 18.668 159.451 17.966 159.156 17.394C158.861 16.8047 158.445 16.354 157.908 16.042C157.371 15.7127 156.721 15.548 155.958 15.548C155.161 15.548 154.459 15.7213 153.852 16.068C153.245 16.4147 152.777 16.9 152.448 17.524C152.119 18.148 151.954 18.8847 151.954 19.734C151.954 20.6007 152.127 21.3633 152.474 22.022C152.821 22.6633 153.315 23.166 153.956 23.53C154.597 23.8767 155.334 24.05 156.166 24.05C156.859 24.05 157.492 23.9287 158.064 23.686C158.653 23.4433 159.156 23.0793 159.572 22.594L161.08 24.128C160.491 24.8213 159.763 25.35 158.896 25.714C158.047 26.078 157.137 26.26 156.166 26.26ZM168.311 26.26C167.618 26.26 166.959 26.1733 166.335 26C165.729 25.8093 165.165 25.5493 164.645 25.22C164.125 24.8733 163.675 24.466 163.293 23.998L164.801 22.49C165.252 23.0447 165.772 23.4607 166.361 23.738C166.951 23.998 167.609 24.128 168.337 24.128C169.065 24.128 169.629 24.0067 170.027 23.764C170.426 23.504 170.625 23.1487 170.625 22.698C170.625 22.2473 170.461 21.9007 170.131 21.658C169.819 21.398 169.412 21.19 168.909 21.034C168.407 20.8607 167.869 20.696 167.297 20.54C166.743 20.3667 166.214 20.15 165.711 19.89C165.209 19.63 164.793 19.2747 164.463 18.824C164.151 18.3733 163.995 17.7753 163.995 17.03C163.995 16.2847 164.177 15.6433 164.541 15.106C164.905 14.5513 165.408 14.1267 166.049 13.832C166.708 13.5373 167.497 13.39 168.415 13.39C169.386 13.39 170.244 13.5633 170.989 13.91C171.752 14.2393 172.376 14.742 172.861 15.418L171.353 16.926C171.007 16.4753 170.573 16.1287 170.053 15.886C169.551 15.6433 168.979 15.522 168.337 15.522C167.661 15.522 167.141 15.6433 166.777 15.886C166.431 16.1113 166.257 16.432 166.257 16.848C166.257 17.264 166.413 17.5847 166.725 17.81C167.037 18.0353 167.445 18.226 167.947 18.382C168.467 18.538 169.005 18.7027 169.559 18.876C170.114 19.032 170.643 19.2487 171.145 19.526C171.648 19.8033 172.055 20.176 172.367 20.644C172.697 21.112 172.861 21.7273 172.861 22.49C172.861 23.6513 172.445 24.57 171.613 25.246C170.799 25.922 169.698 26.26 168.311 26.26Z" fill="white" fill-opacity="0.7"/>
<path d="M175.829 26.2582C175.605 26.2582 175.417 26.1822 175.265 26.0302C175.121 25.8702 175.049 25.6822 175.049 25.4662C175.049 25.2422 175.121 25.0582 175.265 24.9142C175.417 24.7622 175.605 24.6862 175.829 24.6862C176.053 24.6862 176.237 24.7622 176.381 24.9142C176.533 25.0582 176.609 25.2422 176.609 25.4662C176.609 25.6822 176.533 25.8702 176.381 26.0302C176.237 26.1822 176.053 26.2582 175.829 26.2582ZM180.551 26.2582C180.031 26.2582 179.559 26.1302 179.135 25.8742C178.711 25.6102 178.375 25.2542 178.127 24.8062C177.887 24.3582 177.767 23.8542 177.767 23.2942C177.767 22.7342 177.887 22.2302 178.127 21.7822C178.375 21.3342 178.707 20.9782 179.123 20.7142C179.547 20.4502 180.023 20.3182 180.551 20.3182C180.983 20.3182 181.367 20.4102 181.703 20.5942C182.047 20.7702 182.323 21.0182 182.531 21.3382C182.739 21.6502 182.855 22.0142 182.879 22.4302V24.1462C182.855 24.5542 182.739 24.9182 182.531 25.2382C182.331 25.5582 182.059 25.8102 181.715 25.9942C181.379 26.1702 180.991 26.2582 180.551 26.2582ZM180.731 25.2382C181.267 25.2382 181.699 25.0582 182.027 24.6982C182.355 24.3302 182.519 23.8622 182.519 23.2942C182.519 22.9022 182.443 22.5622 182.291 22.2742C182.147 21.9782 181.939 21.7502 181.667 21.5902C181.395 21.4222 181.079 21.3382 180.719 21.3382C180.359 21.3382 180.039 21.4222 179.759 21.5902C179.487 21.7582 179.271 21.9902 179.111 22.2862C178.959 22.5742 178.883 22.9062 178.883 23.2822C178.883 23.6662 178.959 24.0062 179.111 24.3022C179.271 24.5902 179.491 24.8182 179.771 24.9862C180.051 25.1542 180.371 25.2382 180.731 25.2382ZM182.447 26.1382V24.6022L182.651 23.2102L182.447 21.8302V20.4382H183.539V26.1382H182.447ZM185.124 26.1382V20.4382H186.204V26.1382H185.124ZM185.664 19.2982C185.464 19.2982 185.3 19.2342 185.172 19.1062C185.044 18.9702 184.98 18.8022 184.98 18.6022C184.98 18.4102 185.044 18.2502 185.172 18.1222C185.3 17.9862 185.464 17.9182 185.664 17.9182C185.864 17.9182 186.028 17.9862 186.156 18.1222C186.284 18.2502 186.348 18.4102 186.348 18.6022C186.348 18.8022 186.284 18.9702 186.156 19.1062C186.028 19.2342 185.864 19.2982 185.664 19.2982Z" fill="#5200FF"/>
</svg>
