<svg width="21" height="20" viewBox="0 0 21 20" fill="none" xmlns="http://www.w3.org/2000/svg">
<mask id="mask0_14_662" style="mask-type:luminance" maskUnits="userSpaceOnUse" x="0" y="0" width="21" height="20">
<path fill-rule="evenodd" clip-rule="evenodd" d="M1.98682 5.5H19.9868L18.9868 19H2.98682L1.98682 5.5Z" fill="white"/>
<path fill-rule="evenodd" clip-rule="evenodd" d="M1.25406 4.81951C1.44327 4.61577 1.70877 4.5 1.98682 4.5H19.9868C20.2649 4.5 20.5304 4.61577 20.7196 4.81951C20.9088 5.02326 21.0046 5.29658 20.9841 5.57387L19.9841 19.0739C19.9454 19.5961 19.5104 20 18.9868 20H2.98682C2.46319 20 2.02823 19.5961 1.98955 19.0739L0.989551 5.57387C0.969011 5.29658 1.06485 5.02326 1.25406 4.81951ZM3.06363 6.5L3.91548 18H18.0582L18.91 6.5H3.06363Z" fill="white"/>
<path fill-rule="evenodd" clip-rule="evenodd" d="M5.98682 1C5.98682 0.447715 6.43453 0 6.98682 0H14.9868C15.5391 0 15.9868 0.447715 15.9868 1V7.5C15.9868 8.05228 15.5391 8.5 14.9868 8.5C14.4345 8.5 13.9868 8.05228 13.9868 7.5V2H7.98682V7.5C7.98682 8.05228 7.5391 8.5 6.98682 8.5C6.43453 8.5 5.98682 8.05228 5.98682 7.5V1Z" fill="white"/>
<path fill-rule="evenodd" clip-rule="evenodd" d="M5.98682 15C5.98682 14.4477 6.43453 14 6.98682 14H14.9868C15.5391 14 15.9868 14.4477 15.9868 15C15.9868 15.5523 15.5391 16 14.9868 16H6.98682C6.43453 16 5.98682 15.5523 5.98682 15Z" fill="black"/>
</mask>
<g mask="url(#mask0_14_662)">
<path d="M-1.01318 -2H22.9868V22H-1.01318V-2Z" fill="#5200FF"/>
</g>
</svg>
