<svg width="25" height="24" viewBox="0 0 25 24" fill="none" xmlns="http://www.w3.org/2000/svg">
<path opacity="0.5" fill-rule="evenodd" clip-rule="evenodd" d="M7.19971 1.75C7.19971 1.55109 7.12069 1.36032 6.98004 1.21967C6.83938 1.07902 6.64862 1 6.44971 1C6.25079 1 6.06003 1.07902 5.91938 1.21967C5.77872 1.36032 5.69971 1.55109 5.69971 1.75V21.75C5.69971 21.9489 5.77872 22.1397 5.91938 22.2803C6.06003 22.421 6.25079 22.5 6.44971 22.5C6.64862 22.5 6.83938 22.421 6.98004 22.2803C7.12069 22.1397 7.19971 21.9489 7.19971 21.75V3.6V1.75Z" fill="white" fill-opacity="0.8"/>
<path d="M14.0487 3.79003L13.8447 3.70803C12.282 3.08299 10.5711 2.92594 8.92071 3.25603L7.19971 3.60003V13.6L8.91971 13.256C10.5705 12.9257 12.2816 13.0828 13.8447 13.708C15.5383 14.3853 17.4022 14.5116 19.1717 14.069L19.3857 14.016C19.6896 13.9402 19.9593 13.7649 20.1521 13.5182C20.3449 13.2714 20.4497 12.9672 20.4497 12.654V5.28703C20.4496 5.1048 20.4081 4.92497 20.3282 4.7612C20.2482 4.59742 20.1321 4.454 19.9885 4.34181C19.8448 4.22963 19.6776 4.15162 19.4993 4.11371C19.3211 4.0758 19.1365 4.07899 18.9597 4.12303C17.3283 4.53067 15.6099 4.4148 14.0487 3.79003Z" fill="white" fill-opacity="0.8"/>
</svg>
