<svg width="17" height="11" viewBox="0 0 17 11" fill="none" xmlns="http://www.w3.org/2000/svg">
<path d="M5.1 0.578857C6.4526 0.578857 7.74981 1.09732 8.70624 2.0202C9.66268 2.94308 10.2 4.19477 10.2 5.49991C10.2 6.80505 9.66268 8.05674 8.70624 8.97962C7.74981 9.9025 6.4526 10.421 5.1 10.421C3.7474 10.421 2.45019 9.9025 1.49376 8.97962C0.53732 8.05674 0 6.80505 0 5.49991C0 4.19477 0.53732 2.94308 1.49376 2.0202C2.45019 1.09732 3.7474 0.578857 5.1 0.578857ZM12.75 1.39903C14.025 1.39903 14.875 3.23541 14.875 5.49991C14.875 7.76441 14.025 9.60079 12.75 9.60079C11.475 9.60079 10.625 7.76441 10.625 5.49991C10.625 3.23541 11.475 1.39903 12.75 1.39903ZM16.15 1.80912C16.473 1.80912 16.7552 2.48741 16.898 3.65123L16.938 4.01457L16.9541 4.20731L16.9796 4.61248L16.9881 4.82491L16.9983 5.26862L17 5.49991L16.9983 5.7312L16.9881 6.17491L16.9796 6.38816L16.9541 6.79251L16.9371 6.98525L16.8989 7.34859C16.7552 8.51323 16.4739 9.1907 16.15 9.1907C15.827 9.1907 15.5448 8.51241 15.402 7.34859L15.3621 6.98525C15.3562 6.92104 15.3508 6.85679 15.3459 6.79251L15.3204 6.38734C15.3171 6.31655 15.3143 6.24574 15.3119 6.17491L15.3017 5.7312V5.26862L15.3119 4.82491L15.3204 4.61166L15.3459 4.20731L15.3629 4.01457L15.4011 3.65123C15.5448 2.48659 15.8262 1.80912 16.15 1.80912Z" fill="#09021A"/>
</svg>
