<svg width="14" height="16" viewBox="0 0 14 16" fill="none" xmlns="http://www.w3.org/2000/svg">
<path d="M6.8 0.717773C6.08392 0.717773 5.39716 1.00224 4.89081 1.50859C4.38446 2.01493 4.1 2.70169 4.1 3.41777V4.31777H3.2C2.48392 4.31777 1.79716 4.60224 1.29081 5.10859C0.784464 5.61493 0.5 6.30169 0.5 7.01777V12.4178C0.5 13.1339 0.784464 13.8206 1.29081 14.327C1.79716 14.8333 2.48392 15.1178 3.2 15.1178H10.4C11.1161 15.1178 11.8028 14.8333 12.3092 14.327C12.8155 13.8206 13.1 13.1339 13.1 12.4178V7.01777C13.1 6.30169 12.8155 5.61493 12.3092 5.10859C11.8028 4.60224 11.1161 4.31777 10.4 4.31777H9.5V3.41777C9.5 2.70169 9.21554 2.01493 8.70919 1.50859C8.20284 1.00224 7.51608 0.717773 6.8 0.717773ZM5 3.41777C5 2.94038 5.18964 2.48255 5.52721 2.14498C5.86477 1.80742 6.32261 1.61777 6.8 1.61777C7.27739 1.61777 7.73523 1.80742 8.07279 2.14498C8.41036 2.48255 8.6 2.94038 8.6 3.41777V4.31777H5V3.41777ZM6.8 10.6178C6.56131 10.6178 6.33239 10.523 6.1636 10.3542C5.99482 10.1854 5.9 9.95647 5.9 9.71777C5.9 9.47908 5.99482 9.25016 6.1636 9.08138C6.33239 8.91259 6.56131 8.81777 6.8 8.81777C7.0387 8.81777 7.26761 8.91259 7.4364 9.08138C7.60518 9.25016 7.7 9.47908 7.7 9.71777C7.7 9.95647 7.60518 10.1854 7.4364 10.3542C7.26761 10.523 7.0387 10.6178 6.8 10.6178Z" fill="#FF0000"/>
</svg>
