<svg width="19" height="18" viewBox="0 0 19 18" fill="none" xmlns="http://www.w3.org/2000/svg">
<path d="M7 13V5C7 4.46957 7.21071 3.96086 7.58579 3.58579C7.96086 3.21071 8.46957 3 9 3H18V2C18 0.9 17.1 0 16 0H2C1.46957 0 0.960859 0.210714 0.585786 0.585786C0.210714 0.960859 0 1.46957 0 2V16C0 16.5304 0.210714 17.0391 0.585786 17.4142C0.960859 17.7893 1.46957 18 2 18H16C17.1 18 18 17.1 18 16V15H9C8.46957 15 7.96086 14.7893 7.58579 14.4142C7.21071 14.0391 7 13.5304 7 13ZM10 5C9.45 5 9 5.45 9 6V12C9 12.55 9.45 13 10 13H19V5H10ZM13 10.5C12.17 10.5 11.5 9.83 11.5 9C11.5 8.17 12.17 7.5 13 7.5C13.83 7.5 14.5 8.17 14.5 9C14.5 9.83 13.83 10.5 13 10.5Z" fill="#0B0C19" fill-opacity="0.8"/>
</svg>
