<svg width="13" height="11" viewBox="0 0 13 11" fill="none" xmlns="http://www.w3.org/2000/svg">
<path d="M0.944224 4.75756C4.14307 3.33462 6.27611 2.3965 7.34343 1.94321C10.3907 0.649104 11.0239 0.424291 11.4367 0.41682C11.5274 0.415262 11.7304 0.438225 11.8619 0.547125C11.9729 0.639112 12.0034 0.763366 12.018 0.850541C12.0326 0.937762 12.0508 1.1364 12.0363 1.2916C11.8712 3.06315 11.1567 7.36227 10.7932 9.34644C10.6393 10.186 10.3365 10.4675 10.0433 10.4951C9.40607 10.5549 8.92216 10.0651 8.30501 9.65201C7.33921 9.00567 6.79366 8.60325 5.85618 7.97254C4.77282 7.2436 5.47512 6.84297 6.09255 6.1882C6.25411 6.01687 9.06172 3.40942 9.11608 3.17292C9.12286 3.14331 9.12919 3.03303 9.06502 2.97482C9.00085 2.91662 8.90616 2.93651 8.83782 2.95232C8.74098 2.97478 7.19814 4.01597 4.20935 6.07591C3.77141 6.38295 3.37477 6.5325 3.01937 6.52466C2.62759 6.51605 1.87395 6.29852 1.31369 6.11257C0.626508 5.88446 0.08033 5.76392 0.127887 5.37658C0.15266 5.17482 0.424763 4.96848 0.944224 4.75756Z" fill="#020202"/>
</svg>
